<?xml version="1.0" encoding="utf-8"?>
<!-- Generator: Adobe Illustrator 25.0.1, SVG Export Plug-In . SVG Version: 6.00 Build 0)  -->
<svg version="1.1" id="Capa_1" xmlns="http://www.w3.org/2000/svg" xmlns:xlink="http://www.w3.org/1999/xlink" x="0px" y="0px"
	 viewBox="0 0 150 150" style="enable-background:new 0 0 150 150;" xml:space="preserve">
<g id="KZroh6">
	<path d="M90.7,116c7.6,4.8,15.1,9.6,22.6,14.5c4.1,2.6,5.8,6.7,4.6,10.9c-1.8,6.6-9.3,9.3-15,5.4c-7-4.9-14-9.9-20.9-14.9
		c-1.9-1.4-3.9-2.7-5.8-4.1c-0.9-0.7-1.5-0.7-2.4,0c-8.8,6.3-17.5,12.5-26.3,18.7c-4.7,3.3-10.4,2.4-13.7-1.9
		c-3.4-4.5-2.2-10.8,2.7-14c6.2-4.1,12.5-8,18.8-12l4.1-2.7c-0.5-0.4-0.9-0.7-1.3-1c-7.2-5.1-14.5-10.3-21.7-15.4
		c-0.8-0.6-1.5-0.7-2.5-0.2c-16.2,7.5-33.2-6.2-32.8-21.2c0.2-8.4,6.3-15.6,14.8-17.3c11.7-2.3,24.1,5.2,27.2,16.8
		c0.6,2.3,0.7,4.7,0.8,7.1c0,0.9,0.3,1.5,1.1,2c9.7,6.2,19.4,12.4,29.1,18.7c0.8,0.5,1.3,0.4,2-0.1c9.6-6.2,19.3-12.4,29-18.6
		c0.8-0.5,1.1-1,1.1-1.9c-0.7-15.2,12.3-24.3,23.5-24.3c14.2,0,23,12.9,17.6,26.1c-4.4,10.9-18,19-31.5,12.7
		c-0.6-0.2-1.2-0.2-1.8,0.1c-7.6,5.3-15.2,10.7-22.7,16.1C91.1,115.6,90.9,115.8,90.7,116z M20.3,65.4C10,65.4,3.6,74.2,7,83.9
		c3.2,9.2,15,16.6,26,10.3c1.8-1,3.1-0.9,4.7,0.2C55.8,107.3,73.9,120.2,92,133c4.5,3.2,9,6.4,13.6,9.6c2.9,2,6.6,0.8,7.5-2.6
		c0.6-2.1-0.3-4.1-2.6-5.5c-14.3-9.2-28.7-18.4-43-27.5c-9-5.7-17.9-11.5-27-17.2c-1.5-1-2.1-2.1-1.8-3.8c0.2-0.8,0.2-1.5,0.2-2.3
		C39.2,73.7,30.6,65.4,20.3,65.4L20.3,65.4z M79.6,108.9c1.8,1.2,3.6,2.2,5.2,3.4c1,0.8,1.7,0.6,2.7-0.1c8.4-6,16.9-12,25.3-18
		c1.2-0.9,2.3-1.1,3.7-0.3c10.5,6.4,21.7,0.4,25.9-8.3c4.1-8.6,0.2-17.4-8.6-19.7c-10.2-2.6-24.5,6-22.4,20c0.3,1.8-0.2,3-1.8,4
		c-8.3,5.3-16.6,10.6-24.9,15.9L79.6,108.9z M70.8,124c-2.2-1.6-4.3-3.1-6.5-4.6c-0.3-0.2-1-0.1-1.3,0.2
		c-7.9,5.1-15.9,10.1-23.8,15.2c-1.3,0.8-2.2,2.1-2.3,3.6c-0.1,1.9,0.6,3.4,2.2,4.4c1.6,1.1,3.8,1,5.3-0.2c3.9-2.8,7.9-5.6,11.8-8.3
		L70.8,124z"/>
	<path d="M56.6,11c9-12.8,27.7-12.7,36.8,0c2.7-2,5.8-3.5,9.1-4.2c12-2.6,24.2,5.4,26.4,17.4c2.3,12.6-6,24.4-18.4,26.2
		c-1,0.1-1.4,0.5-1.7,1.6c-2.1,10.7-4.2,21.3-6.4,31.9c-0.1,0.5-0.2,1-0.4,1.7l-4.8-0.9c0.4-2.3,0.9-4.5,1.3-6.8H51.5
		c0.4,2.2,0.8,4.4,1.3,6.8l-4.8,1c-0.8-3.7-1.5-7.4-2.2-11c-1.5-7.6-3.1-15.3-4.6-22.9c-0.2-1-0.6-1.2-1.5-1.4
		c-11.7-1.8-20.1-12.5-18.8-24c1.4-12.1,11.6-20.8,23.7-20C49,6.7,53.2,8.3,56.6,11z M99.6,72.7c0.1-0.6,0.3-1.1,0.4-1.7
		c1.5-7.6,3-15.2,4.6-22.7c0.4-2,1-2.5,3.1-2.6c9.5-0.3,16.9-8.3,16.6-17.8c-0.3-9.5-8.3-16.9-17.8-16.6c-4.2,0.1-8.2,1.8-11.3,4.7
		c-2.3,2.2-3.5,1.9-5.1-0.8c-3.4-5.7-8.4-8.8-15-8.8c-6.6,0-11.8,3.1-15.1,8.9c-1.5,2.6-2.8,2.8-5,0.8c-5.1-4.6-11-6-17.5-3.8
		c-7.6,2.6-12.6,10.5-11.5,18.2c1.2,8.7,7.9,14.9,16.4,15.3c2.2,0.1,2.8,0.6,3.2,2.7c0.8,4,1.6,7.9,2.4,11.9
		c0.8,4.1,1.7,8.3,2.5,12.4h9.4c-0.7-4.8-1.3-9.5-2-14.3l4.9-0.7l2.2,15h7.8V45.8h4.9v26.9h7.7c0.7-5,1.4-10,2.2-15l4.9,0.7
		c-0.7,4.9-1.4,9.6-2,14.3H99.6z"/>
	<path d="M106,117.1l-2.8-4c2.8-2,5.6-3.8,8.2-5.9c2.4-2,4.7-2.5,8-1.7c8.9,2.2,16.9-0.1,24-5.7c0.5-0.4,0.9-0.8,1.5-1.2
		c0.8,0.8,1.5,1.6,2.2,2.4c0.3,0.4,0.7,0.8,1.1,1.2c-4.7,4.3-10,7.1-16.2,8.4c-4.9,1-9.9,0.9-14.8-0.3c-0.7-0.1-1.3,0-1.9,0.4
		C112.1,112.7,109.1,114.9,106,117.1z"/>
	<path d="M25.4,1.9L28,5.8C17.3,14,13.8,24.5,17.3,37.5L13.1,39C8.4,29,11.2,10.9,25.4,1.9z"/>
	<path d="M19,49.7c-1.3-1.7-2.4-3.3-3.8-5.1l4.3-2.5c1.1,1.5,2.1,2.9,3.1,4.4C21.5,47.4,20.3,48.4,19,49.7z"/>
</g>
</svg>
