<svg id="Capa_1" data-name="Capa 1" xmlns="http://www.w3.org/2000/svg" viewBox="0 0 400 238.76"><path d="M251.89,199.16v-1.08c5,0,8.84-3,8.84-15.1V56.64c0-4.53-2.8-6.68-7.11-5.17l-1.73.64V51l28.25-13.58V145.9c15.31-22.64,39.45-54.33,70.5-54.55.22,9.06.43,18.54-10.78,18.54-18.76,0-29.75,4.53-37.73,11.43L341.37,183c7.76,12.29,13.58,15.1,18.54,15.1v1.08H321.53v-1.08c5,0,6.9-3-.86-15.1l-30.4-47.86c-3.23,4.53-6.47,9.49-10.13,14.45V183c0,12.08,3.88,15.1,8.84,15.1v1.08Z"/><path d="M196.58,38.93c2.1,12.21,8.29,18.41,21.12,21.12-12.83,2.7-19.46,7.85-21.64,20.07-2.1-12.22-8.82-17.37-21.65-20.07C187.24,57.34,193.44,51.14,196.58,38.93Z"/><path d="M40.09,199.16v-1.08c5,0,8.84-3,8.84-15.1V56.64c0-4.53-2.81-6.68-7.12-5.17l-1.72.64V51L68.33,37.45V145.9c15.31-22.64,39.46-54.33,70.51-54.55.21,9.06.43,18.54-10.78,18.54-18.76,0-29.76,4.53-37.74,11.43L129.56,183c7.77,12.29,13.59,15.1,18.55,15.1v1.08H109.73v-1.08c5,0,6.9-3-.86-15.1l-30.4-47.86c-3.24,4.53-6.47,9.49-10.14,14.45V183c0,12.08,3.88,15.1,8.84,15.1v1.08Z"/><path d="M142.85,106v-1.07L171.1,91.35V125.2c0,30-2.16,71.37,23.28,71.37,12.94,0,26.09-10.78,32.56-26.09V110.54c0-4.53-2.8-6.68-7.12-5.17l-1.72.64v-1.07l28.24-13.59V183c0,12.08,3.89,15.1,8.84,15.1v1.08H234.49a7.13,7.13,0,0,1-7.55-7.55v-16c-8.41,15.53-22.42,25.66-40.53,25.66-33.64,0-34.72-30-34.72-59.29V110.54c0-4.53-2.8-6.68-7.11-5.17Z"/></svg>