<svg id="Capa_1" data-name="Capa 1" xmlns="http://www.w3.org/2000/svg" viewBox="0 0 458.66 254.25"><defs><style>.cls-1{fill:none;stroke:#000;stroke-linecap:round;stroke-miterlimit:10;}</style></defs><path d="M41.8,205.88v-.44c2,0,3.63-1.24,3.63-6.19V147.41c0-1.86-1.15-2.74-2.92-2.12l-.71.26v-.44l11.59-5.57V184c6.28-9.28,16.19-22.29,28.93-22.38.09,3.72.18,7.61-4.42,7.61-7.7,0-12.21,1.86-15.48,4.69l16.09,25.3c3.19,5,5.58,6.19,7.61,6.19v.44H70.38v-.44c2,0,2.83-1.24-.36-6.19L57.55,179.61c-1.33,1.86-2.65,3.89-4.16,5.93v13.71c0,4.95,1.59,6.19,3.63,6.19v.44Z"/><path d="M44.46,110.29v-.45c2,0,3.62-1.23,3.62-6.19V55c0-5-1.59-6.19-3.62-6.19v-.45H69.85c29.9,0,27.68,35.48-3.81,35.57H56.93v19.72c0,5,1.59,6.19,3.63,6.19v.45Zm12.47-61V83h10c24.85-.18,18.75-33.79-1.68-33.79Z"/><path d="M124.25,79.24c-.44-8.32-2.3-12.74-8.67-12.83-8.23-.09-13.18,8.49-17,8.67-1.86.18-3.45-2-3.54-3.8,0-5.14,14.68-6,18-6,15.66,0,19.29,12.92,19.29,21.14v17.25c0,5,1.59,6.19,3.62,6.19v.45h-8.49a2.93,2.93,0,0,1-3.09-3.1V93.13c-2,9.28-7,18-17.87,18-6.28,0-11.94-3.89-11.94-11.14C94.62,92.15,102.93,82.42,124.25,79.24Zm-14,27.77c10.53,0,13.27-11.41,14.16-20.52,0-2.3,0-4.42-.09-6.37-17.52,2.74-23.18,8.49-23.18,16.63C101.16,103,105.05,107,110.27,107Z"/><path d="M143.27,66.06v-5.4c0-1.86-1.15-2.74-2.92-2.12l-.71.26v-.44l11.59-5.57V66.06h10.7v.88h-10.7v19.2c0,10.7-1.15,22.11,4.6,22.11A6.76,6.76,0,0,0,161.4,105l.62.44c-3.54,4.87-7.52,5.75-9.46,5.75-10.09,0-9.29-11.76-9.29-21.67V66.94H139v-.88Z"/><path d="M195.2,79.24c-.45-8.32-2.3-12.74-8.67-12.83-8.23-.09-13.18,8.49-17,8.67-1.86.18-3.45-2-3.54-3.8,0-5.14,14.69-6,18.05-6,15.66,0,19.28,12.92,19.28,21.14v17.25c0,5,1.6,6.19,3.63,6.19v.45h-8.49a2.93,2.93,0,0,1-3.1-3.1V93.13c-2,9.28-7,18-17.87,18-6.28,0-11.94-3.89-11.94-11.14C165.56,92.15,173.88,82.42,195.2,79.24Zm-14,27.77c10.53,0,13.27-11.41,14.15-20.52,0-2.3,0-4.42-.08-6.37-17.52,2.74-23.18,8.49-23.18,16.63C172.11,103,176,107,181.22,107Z"/><path d="M187.15,119.57c1.77-3,4.95-5,7.6-4.86,13.8.8,22,22,38.48,22,15.66,0,16.9-32.11-3.71-32.11-5.13,0-9.55,1.94-13.62,5.66l-.71-.36L222,98.17c-6-2.92-10.61-8.32-10.61-15.92,0-11.77,11.14-17,21.31-17a24.28,24.28,0,0,1,7.79,1.24l1.68-2.92c1.41-2.74,1.59-9.82,5.48-9.82,5-.09,5.84,5.75,1.24,7.7l-5.66,2.3-1.77,3.09c7.79,2.92,12.39,9.82,12.39,16.72,0,11.77-10.89,17-21.15,17a25.35,25.35,0,0,1-9.9-2l-5.67,9.73c4.16-3.45,10.53-5.48,16.55-5.48,28.83.26,21.76,35.29-3.54,35.29-16.63,0-24.42-16.63-40.61-16.63a25.44,25.44,0,0,0-3.62.27ZM218.2,78a24,24,0,0,0,6.45,15.66l13.71-23.53a15.53,15.53,0,0,0-9.55-3.45C220.85,66.76,218.2,72.25,218.2,78Zm17.51,21.14c8.32.35,11.41-5.22,11.41-11.06a24.38,24.38,0,0,0-8.05-17.34l-13.8,23.54A16.28,16.28,0,0,0,235.71,99.14Z"/><path d="M278.7,65.26c12.92,0,21.15,11.77,21.15,23.8,0,15.21-10.89,22-21.15,22s-21.32-8.49-21.32-23.79S268.53,65.26,278.7,65.26ZM263.31,81.8c0,12,8.23,27,18.4,27.6,8.32.44,12.3-7,12.3-14.59,0-12.3-8.67-28-19.2-27.78C266.85,67.12,263.31,74.28,263.31,81.8Z"/><path d="M304.27,110.29v-.45c2,0,3.63-1.23,3.63-6.19V73.93c0-1.86-1.15-2.74-2.92-2.12l-.71.26v-.44l11.59-5.57V75.7c3.45-6.37,9.2-10.53,16.63-10.53,13.8,0,14.24,12.3,14.24,24.33v14.15c0,5,1.59,6.19,3.63,6.19v.45H335.14v-.45c2,0,3.63-1.23,3.63-6.19V96.4c0-12.3.88-29.28-9.56-29.28-5.3,0-10.7,4.42-13.35,10.7v25.83c0,5,1.59,6.19,3.62,6.19v.45Z"/><path d="M355.66,71.63l11.59-5.57v37.59c0,5,1.6,6.19,3.63,6.19v.45H355.66v-.45c2,0,3.63-1.23,3.63-6.19V73.93c0-1.86-1.15-2.74-2.92-2.12l-.71.26Zm1.6-16a4.82,4.82,0,1,1,4.86,4.86A4.77,4.77,0,0,1,357.26,55.62Z"/><path d="M404.94,79.24c-.45-8.32-2.3-12.74-8.67-12.83-8.23-.09-13.18,8.49-17,8.67-1.85.18-3.45-2-3.53-3.8,0-5.14,14.68-6,18-6,15.66,0,19.29,12.92,19.29,21.14v17.25c0,5,1.59,6.19,3.62,6.19v.45h-8.49a2.93,2.93,0,0,1-3.1-3.1V93.13c-2,9.28-7,18-17.87,18-6.28,0-11.94-3.89-11.94-11.14C375.3,92.15,383.62,82.42,404.94,79.24ZM391,107c10.53,0,13.27-11.41,14.15-20.52,0-2.3,0-4.42-.08-6.37-17.52,2.74-23.18,8.49-23.18,16.63C381.85,103,385.74,107,391,107Z"/><path d="M207.54,166.78v-.44l11.58-5.57v13.89c0,12.29-.88,29.28,9.56,29.28,5.31,0,10.7-4.42,13.36-10.71V168.64c0-1.86-1.15-2.74-2.92-2.12l-.71.26v-.44L250,160.77v37.59c0,5,1.59,6.2,3.62,6.2V205h-8.49a2.92,2.92,0,0,1-3.09-3.1v-6.54c-3.45,6.37-9.2,10.52-16.64,10.52-13.8,0-14.24-12.29-14.24-24.32V168.64c0-1.86-1.15-2.74-2.92-2.12Z"/><path d="M372.54,205.88v-.44c2,0,3.63-1.24,3.63-6.19V147.41c0-1.86-1.16-2.74-2.92-2.12l-.71.26v-.44l11.59-5.57V184c6.28-9.28,16.18-22.29,28.92-22.38.09,3.72.18,7.61-4.42,7.61-7.7,0-12.21,1.86-15.48,4.69l16.1,25.3c3.18,5,5.57,6.19,7.61,6.19v.44H401.11v-.44c2,0,2.83-1.24-.35-6.19l-12.48-19.64c-1.32,1.86-2.65,3.89-4.15,5.93v13.71c0,4.95,1.59,6.19,3.62,6.19v.44Z"/><line class="cls-1" x1="114.12" y1="185.63" x2="179.54" y2="185.63"/><line class="cls-1" x1="280.37" y1="185.63" x2="345.8" y2="185.63"/></svg>