<?xml version="1.0" encoding="utf-8"?>
<!-- Generator: Adobe Illustrator 25.0.1, SVG Export Plug-In . SVG Version: 6.00 Build 0)  -->
<svg version="1.1" id="Capa_1" xmlns="http://www.w3.org/2000/svg" xmlns:xlink="http://www.w3.org/1999/xlink" x="0px" y="0px"
	 viewBox="0 0 1756.9 260.5" style="enable-background:new 0 0 1756.9 260.5;" xml:space="preserve">
<g>
	<g>
		<g>
			<g>
				<g>
					<path d="M75.5,61.9v-0.4c1.8,0,3.2-1.1,3.2-5.4v-45c0-1.6-1-2.4-2.5-1.8l-0.6,0.2V9.1l10.1-4.8v38.7
						c5.5-8.1,14.1-19.4,25.1-19.4c0.1,3.2,0.2,6.6-3.8,6.6c-6.7,0-10.6,1.6-13.5,4.1l14,22c2.8,4.4,4.8,5.4,6.6,5.4v0.4h-13.7v-0.4
						c1.8,0,2.5-1.1-0.3-5.4L89.2,39c-1.2,1.6-2.3,3.4-3.6,5.2v11.9c0,4.3,1.4,5.4,3.2,5.4v0.4H75.5z"/>
				</g>
			</g>
			<g>
				<g>
					<path d="M55.8,4.7c0.7,4.4,3,6.6,7.5,7.5c-4.6,1-6.9,2.8-7.7,7.2c-0.7-4.4-3.1-6.2-7.7-7.2C52.5,11.3,54.7,9.1,55.8,4.7z"/>
				</g>
			</g>
			<g>
				<g>
					<path d="M0,61.9v-0.4c1.8,0,3.2-1.1,3.2-5.4v-45c0-1.6-1-2.4-2.5-1.8L0,9.4V9.1l10.1-4.8v38.7c5.5-8.1,14.1-19.4,25.1-19.4
						c0.1,3.2,0.2,6.6-3.8,6.6c-6.7,0-10.6,1.6-13.5,4.1l14,22c2.8,4.4,4.8,5.4,6.6,5.4v0.4H24.8v-0.4c1.8,0,2.5-1.1-0.3-5.4
						L13.7,39c-1.2,1.6-2.3,3.4-3.6,5.2v11.9c0,4.3,1.4,5.4,3.2,5.4v0.4H0z"/>
				</g>
			</g>
			<g>
				<g>
					<path d="M36.6,28.7v-0.4l10.1-4.8v12.1C46.7,46.2,45.9,61,55,61c4.6,0,9.3-3.8,11.6-9.3V30.3c0-1.6-1-2.4-2.5-1.8l-0.6,0.2
						v-0.4l10.1-4.8v32.7c0,4.3,1.4,5.4,3.2,5.4v0.4h-7.4c-1.6,0-2.7-1.1-2.7-2.7v-5.7c-3,5.5-8,9.1-14.5,9.1
						c-12,0-12.4-10.7-12.4-21.1V30.3c0-1.6-1-2.4-2.5-1.8L36.6,28.7z"/>
				</g>
			</g>
		</g>
		<g>
			<g>
				<g>
					<path d="M238.4,61.5v-0.4c1.8,0,3.2-1.1,3.2-5.4v-45c0-1.6-1-2.4-2.5-1.8l-0.6,0.2V8.7l10.1-4.8v38.7
						c5.5-8.1,14.1-19.4,25.1-19.4c0.1,3.2,0.2,6.6-3.8,6.6c-6.7,0-10.6,1.6-13.5,4.1l14,22c2.8,4.4,4.8,5.4,6.6,5.4v0.4h-13.7v-0.4
						c1.8,0,2.5-1.1-0.3-5.4l-10.8-17.1c-1.2,1.6-2.3,3.4-3.6,5.2v11.9c0,4.3,1.4,5.4,3.2,5.4v0.4H238.4z"/>
				</g>
			</g>
			<g>
				<g>
					<path d="M218.7,4.4c0.7,4.4,3,6.6,7.5,7.5c-4.6,1-6.9,2.8-7.7,7.2c-0.7-4.4-3.1-6.2-7.7-7.2C215.4,10.9,217.6,8.7,218.7,4.4z"
						/>
				</g>
			</g>
			<g>
				<g>
					<path d="M162.9,61.5v-0.4c1.8,0,3.2-1.1,3.2-5.4v-45c0-1.6-1-2.4-2.5-1.8l-0.6,0.2V8.7L173,3.8v38.7
						c5.5-8.1,14.1-19.4,25.1-19.4c0.1,3.2,0.2,6.6-3.8,6.6c-6.7,0-10.6,1.6-13.5,4.1l14,22c2.8,4.4,4.8,5.4,6.6,5.4v0.4h-13.7v-0.4
						c1.8,0,2.5-1.1-0.3-5.4l-10.8-17.1c-1.2,1.6-2.3,3.4-3.6,5.2v11.9c0,4.3,1.4,5.4,3.2,5.4v0.4H162.9z"/>
				</g>
			</g>
			<g>
				<g>
					<path d="M199.5,28.3v-0.4l10.1-4.8v12.1c0,10.7-0.8,25.4,8.3,25.4c4.6,0,9.3-3.8,11.6-9.3V29.9c0-1.6-1-2.4-2.5-1.8l-0.6,0.2
						v-0.4l10.1-4.8v32.7c0,4.3,1.4,5.4,3.2,5.4v0.4h-7.4c-1.6,0-2.7-1.1-2.7-2.7v-5.7c-3,5.5-8,9.1-14.5,9.1
						c-12,0-12.4-10.7-12.4-21.1V29.9c0-1.6-1-2.4-2.5-1.8L199.5,28.3z"/>
				</g>
			</g>
		</g>
		<g>
			<g>
				<g>
					<path d="M401.3,61.1v-0.4c1.8,0,3.2-1.1,3.2-5.4v-45c0-1.6-1-2.4-2.5-1.8l-0.6,0.2V8.3l10.1-4.8v38.7
						c5.5-8.1,14.1-19.4,25.1-19.4c0.1,3.2,0.2,6.6-3.8,6.6c-6.7,0-10.6,1.6-13.5,4.1l14,22c2.8,4.4,4.8,5.4,6.6,5.4v0.4h-13.7v-0.4
						c1.8,0,2.5-1.1-0.3-5.4L415,38.3c-1.2,1.6-2.3,3.4-3.6,5.2v11.9c0,4.3,1.4,5.4,3.2,5.4v0.4H401.3z"/>
				</g>
			</g>
			<g>
				<g>
					<path d="M381.6,4c0.7,4.4,3,6.6,7.5,7.5c-4.6,1-6.9,2.8-7.7,7.2c-0.7-4.4-3.1-6.2-7.7-7.2C378.3,10.5,380.5,8.3,381.6,4z"/>
				</g>
			</g>
			<g>
				<g>
					<path d="M325.8,61.1v-0.4c1.8,0,3.2-1.1,3.2-5.4v-45c0-1.6-1-2.4-2.5-1.8l-0.6,0.2V8.3l10.1-4.8v38.7
						c5.5-8.1,14.1-19.4,25.1-19.4c0.1,3.2,0.2,6.6-3.8,6.6c-6.7,0-10.6,1.6-13.5,4.1l14,22c2.8,4.4,4.8,5.4,6.6,5.4v0.4h-13.7v-0.4
						c1.8,0,2.5-1.1-0.3-5.4l-10.8-17.1c-1.2,1.6-2.3,3.4-3.6,5.2v11.9c0,4.3,1.4,5.4,3.2,5.4v0.4H325.8z"/>
				</g>
			</g>
			<g>
				<g>
					<path d="M362.4,27.9v-0.4l10.1-4.8v12.1c0,10.7-0.8,25.4,8.3,25.4c4.6,0,9.3-3.8,11.6-9.3V29.5c0-1.6-1-2.4-2.5-1.8l-0.6,0.2
						v-0.4l10.1-4.8v32.7c0,4.3,1.4,5.4,3.2,5.4v0.4h-7.4c-1.6,0-2.7-1.1-2.7-2.7v-5.7c-3,5.5-8,9.1-14.5,9.1
						c-12,0-12.4-10.7-12.4-21.1V29.5c0-1.6-1-2.4-2.5-1.8L362.4,27.9z"/>
				</g>
			</g>
		</g>
		<g>
			<g>
				<g>
					<path d="M564.2,60.7v-0.4c1.8,0,3.2-1.1,3.2-5.4v-45c0-1.6-1-2.4-2.5-1.8l-0.6,0.2V7.9l10.1-4.8v38.7
						c5.5-8.1,14.1-19.4,25.1-19.4c0.1,3.2,0.2,6.6-3.8,6.6c-6.7,0-10.6,1.6-13.5,4.1l14,22c2.8,4.4,4.8,5.4,6.6,5.4v0.4H589v-0.4
						c1.8,0,2.5-1.1-0.3-5.4l-10.8-17.1c-1.2,1.6-2.3,3.4-3.6,5.2V55c0,4.3,1.4,5.4,3.2,5.4v0.4H564.2z"/>
				</g>
			</g>
			<g>
				<g>
					<path d="M544.5,3.6c0.7,4.4,3,6.6,7.5,7.5c-4.6,1-6.9,2.8-7.7,7.2c-0.7-4.4-3.1-6.2-7.7-7.2C541.2,10.2,543.4,7.9,544.5,3.6z"
						/>
				</g>
			</g>
			<g>
				<g>
					<path d="M488.7,60.7v-0.4c1.8,0,3.2-1.1,3.2-5.4v-45c0-1.6-1-2.4-2.5-1.8l-0.6,0.2V7.9l10.1-4.8v38.7
						c5.5-8.1,14.1-19.4,25.1-19.4c0.1,3.2,0.2,6.6-3.8,6.6c-6.7,0-10.6,1.6-13.5,4.1l14,22c2.8,4.4,4.8,5.4,6.6,5.4v0.4h-13.7v-0.4
						c1.8,0,2.5-1.1-0.3-5.4l-10.8-17.1c-1.2,1.6-2.3,3.4-3.6,5.2V55c0,4.3,1.4,5.4,3.2,5.4v0.4H488.7z"/>
				</g>
			</g>
			<g>
				<g>
					<path d="M525.3,27.5v-0.4l10.1-4.8v12.1c0,10.7-0.8,25.4,8.3,25.4c4.6,0,9.3-3.8,11.6-9.3V29.1c0-1.6-1-2.4-2.5-1.8l-0.6,0.2
						v-0.4l10.1-4.8V55c0,4.3,1.4,5.4,3.2,5.4v0.4H558c-1.6,0-2.7-1.1-2.7-2.7v-5.7c-3,5.5-8,9.1-14.5,9.1
						c-12,0-12.4-10.7-12.4-21.1V29.1c0-1.6-1-2.4-2.5-1.8L525.3,27.5z"/>
				</g>
			</g>
		</g>
		<g>
			<g>
				<g>
					<path d="M727.1,60.3V60c1.8,0,3.2-1.1,3.2-5.4v-45c0-1.6-1-2.4-2.5-1.8l-0.6,0.2V7.5l10.1-4.8v38.7
						c5.5-8.1,14.1-19.4,25.1-19.4c0.1,3.2,0.2,6.6-3.8,6.6c-6.7,0-10.6,1.6-13.5,4.1l14,22c2.8,4.4,4.8,5.4,6.6,5.4v0.4h-13.7V60
						c1.8,0,2.5-1.1-0.3-5.4l-10.8-17.1c-1.2,1.6-2.3,3.4-3.6,5.2v11.9c0,4.3,1.4,5.4,3.2,5.4v0.4H727.1z"/>
				</g>
			</g>
			<g>
				<g>
					<path d="M707.4,3.2c0.7,4.4,3,6.6,7.5,7.5c-4.6,1-6.9,2.8-7.7,7.2c-0.7-4.4-3.1-6.2-7.7-7.2C704.1,9.8,706.3,7.6,707.4,3.2z"/>
				</g>
			</g>
			<g>
				<g>
					<path d="M651.6,60.3V60c1.8,0,3.2-1.1,3.2-5.4v-45c0-1.6-1-2.4-2.5-1.8l-0.6,0.2V7.5l10.1-4.8v38.7
						c5.5-8.1,14.1-19.4,25.1-19.4c0.1,3.2,0.2,6.6-3.8,6.6c-6.7,0-10.6,1.6-13.5,4.1l14,22c2.8,4.4,4.8,5.4,6.6,5.4v0.4h-13.7V60
						c1.8,0,2.5-1.1-0.3-5.4l-10.8-17.1c-1.2,1.6-2.3,3.4-3.6,5.2v11.9c0,4.3,1.4,5.4,3.2,5.4v0.4H651.6z"/>
				</g>
			</g>
			<g>
				<g>
					<path d="M688.2,27.1v-0.4l10.1-4.8V34c0,10.7-0.8,25.4,8.3,25.4c4.6,0,9.3-3.8,11.6-9.3V28.7c0-1.6-1-2.4-2.5-1.8l-0.6,0.2
						v-0.4l10.1-4.8v32.7c0,4.3,1.4,5.4,3.2,5.4v0.4h-7.4c-1.6,0-2.7-1.1-2.7-2.7V52c-3,5.5-8,9.1-14.5,9.1
						c-12,0-12.4-10.7-12.4-21.1V28.7c0-1.6-1-2.4-2.5-1.8L688.2,27.1z"/>
				</g>
			</g>
		</g>
		<g>
			<g>
				<g>
					<path d="M890,60v-0.4c1.8,0,3.2-1.1,3.2-5.4v-45c0-1.6-1-2.4-2.5-1.8L890,7.5V7.1l10.1-4.8V41c5.5-8.1,14.1-19.4,25.1-19.4
						c0.1,3.2,0.2,6.6-3.8,6.6c-6.7,0-10.6,1.6-13.5,4.1l14,22c2.8,4.4,4.8,5.4,6.6,5.4V60h-13.7v-0.4c1.8,0,2.5-1.1-0.3-5.4
						l-10.8-17.1c-1.2,1.6-2.3,3.4-3.6,5.2v11.9c0,4.3,1.4,5.4,3.2,5.4V60H890z"/>
				</g>
			</g>
			<g>
				<g>
					<path d="M870.3,2.8c0.7,4.4,3,6.6,7.5,7.5c-4.6,1-6.9,2.8-7.7,7.2c-0.7-4.4-3.1-6.2-7.7-7.2C867,9.4,869.2,7.2,870.3,2.8z"/>
				</g>
			</g>
			<g>
				<g>
					<path d="M814.5,60v-0.4c1.8,0,3.2-1.1,3.2-5.4v-45c0-1.6-1-2.4-2.5-1.8l-0.6,0.2V7.1l10.1-4.8V41c5.5-8.1,14.1-19.4,25.1-19.4
						c0.1,3.2,0.2,6.6-3.8,6.6c-6.7,0-10.6,1.6-13.5,4.1l14,22c2.8,4.4,4.8,5.4,6.6,5.4V60h-13.7v-0.4c1.8,0,2.5-1.1-0.3-5.4
						l-10.8-17.1c-1.2,1.6-2.3,3.4-3.6,5.2v11.9c0,4.3,1.4,5.4,3.2,5.4V60H814.5z"/>
				</g>
			</g>
			<g>
				<g>
					<path d="M851.1,26.7v-0.4l10.1-4.8v12.1c0,10.7-0.8,25.4,8.3,25.4c4.6,0,9.3-3.8,11.6-9.3V28.4c0-1.6-1-2.4-2.5-1.8l-0.6,0.2
						v-0.4l10.1-4.8v32.7c0,4.3,1.4,5.4,3.2,5.4V60h-7.4c-1.6,0-2.7-1.1-2.7-2.7v-5.7c-3,5.5-8,9.1-14.5,9.1
						c-12,0-12.4-10.7-12.4-21.1V28.4c0-1.6-1-2.4-2.5-1.8L851.1,26.7z"/>
				</g>
			</g>
		</g>
		<g>
			<g>
				<g>
					<path d="M1052.9,59.6v-0.4c1.8,0,3.2-1.1,3.2-5.4v-45c0-1.6-1-2.4-2.5-1.8l-0.6,0.2V6.8l10.1-4.8v38.7
						c5.5-8.1,14.1-19.4,25.1-19.4c0.1,3.2,0.2,6.6-3.8,6.6c-6.7,0-10.6,1.6-13.5,4.1l14,22c2.8,4.4,4.8,5.4,6.6,5.4v0.4h-13.7v-0.4
						c1.8,0,2.5-1.1-0.3-5.4l-10.8-17.1c-1.2,1.6-2.3,3.4-3.6,5.2v11.9c0,4.3,1.4,5.4,3.2,5.4v0.4H1052.9z"/>
				</g>
			</g>
			<g>
				<g>
					<path d="M1033.2,2.4c0.7,4.4,3,6.6,7.5,7.5c-4.6,1-6.9,2.8-7.7,7.2c-0.7-4.4-3.1-6.2-7.7-7.2C1029.9,9,1032.1,6.8,1033.2,2.4z"
						/>
				</g>
			</g>
			<g>
				<g>
					<path d="M977.4,59.6v-0.4c1.8,0,3.2-1.1,3.2-5.4v-45c0-1.6-1-2.4-2.5-1.8l-0.6,0.2V6.8l10.1-4.8v38.7
						c5.5-8.1,14.1-19.4,25.1-19.4c0.1,3.2,0.2,6.6-3.8,6.6c-6.7,0-10.6,1.6-13.5,4.1l14,22c2.8,4.4,4.8,5.4,6.6,5.4v0.4h-13.7v-0.4
						c1.8,0,2.5-1.1-0.3-5.4l-10.8-17.1c-1.2,1.6-2.3,3.4-3.6,5.2v11.9c0,4.3,1.4,5.4,3.2,5.4v0.4H977.4z"/>
				</g>
			</g>
			<g>
				<g>
					<path d="M1014,26.4V26l10.1-4.8v12.1c0,10.7-0.8,25.4,8.3,25.4c4.6,0,9.3-3.8,11.6-9.3V28c0-1.6-1-2.4-2.5-1.8l-0.6,0.2V26
						l10.1-4.8v32.7c0,4.3,1.4,5.4,3.2,5.4v0.4h-7.4c-1.6,0-2.7-1.1-2.7-2.7v-5.7c-3,5.5-8,9.1-14.5,9.1c-12,0-12.4-10.7-12.4-21.1
						V28c0-1.6-1-2.4-2.5-1.8L1014,26.4z"/>
				</g>
			</g>
		</g>
		<g>
			<g>
				<g>
					<path d="M1215.8,59.2v-0.4c1.8,0,3.2-1.1,3.2-5.4v-45c0-1.6-1-2.4-2.5-1.8l-0.6,0.2V6.4l10.1-4.8v38.7
						c5.5-8.1,14.1-19.4,25.1-19.4c0.1,3.2,0.2,6.6-3.8,6.6c-6.7,0-10.6,1.6-13.5,4.1l14,22c2.8,4.4,4.8,5.4,6.6,5.4v0.4h-13.7v-0.4
						c1.8,0,2.5-1.1-0.3-5.4l-10.8-17.1c-1.2,1.6-2.3,3.4-3.6,5.2v11.9c0,4.3,1.4,5.4,3.2,5.4v0.4H1215.8z"/>
				</g>
			</g>
			<g>
				<g>
					<path d="M1196.1,2.1c0.7,4.4,3,6.6,7.5,7.5c-4.6,1-6.9,2.8-7.7,7.2c-0.7-4.4-3.1-6.2-7.7-7.2C1192.8,8.6,1195,6.4,1196.1,2.1z"
						/>
				</g>
			</g>
			<g>
				<g>
					<path d="M1140.3,59.2v-0.4c1.8,0,3.2-1.1,3.2-5.4v-45c0-1.6-1-2.4-2.5-1.8l-0.6,0.2V6.4l10.1-4.8v38.7
						c5.5-8.1,14.1-19.4,25.1-19.4c0.1,3.2,0.2,6.6-3.8,6.6c-6.7,0-10.6,1.6-13.5,4.1l14,22c2.8,4.4,4.8,5.4,6.6,5.4v0.4h-13.7v-0.4
						c1.8,0,2.5-1.1-0.3-5.4L1154,36.4c-1.2,1.6-2.3,3.4-3.6,5.2v11.9c0,4.3,1.4,5.4,3.2,5.4v0.4H1140.3z"/>
				</g>
			</g>
			<g>
				<g>
					<path d="M1176.9,26v-0.4l10.1-4.8v12.1c0,10.7-0.8,25.4,8.3,25.4c4.6,0,9.3-3.8,11.6-9.3V27.6c0-1.6-1-2.4-2.5-1.8l-0.6,0.2
						v-0.4l10.1-4.8v32.7c0,4.3,1.4,5.4,3.2,5.4v0.4h-7.4c-1.6,0-2.7-1.1-2.7-2.7v-5.7c-3,5.5-8,9.1-14.5,9.1
						c-12,0-12.4-10.7-12.4-21.1V27.6c0-1.6-1-2.4-2.5-1.8L1176.9,26z"/>
				</g>
			</g>
		</g>
		<g>
			<g>
				<path d="M136.4,46.4l-0.7,0c-0.7-4-2.7-5.9-7.4-6.9v-0.7c4.4-0.9,6.5-3,7.6-7.3l0.7,0c0.7,4.2,2.8,6.3,7.3,7.2v0.7
					C139.1,40.5,137.1,42.4,136.4,46.4z M129.8,39.1c3.5,1,5.4,2.7,6.2,5.6c0.9-2.9,2.8-4.6,6.2-5.6c-3.3-1-5.2-2.9-6.1-6.1
					C135.1,36.3,133.1,38.1,129.8,39.1z"/>
			</g>
		</g>
		<g>
			<g>
				<path d="M299.3,46.4l-0.7,0c-0.7-4-2.7-5.9-7.4-6.9v-0.7c4.4-0.9,6.5-3,7.6-7.3l0.7,0c0.7,4.2,2.8,6.3,7.3,7.2v0.7
					C302,40.5,300,42.4,299.3,46.4z M292.7,39.1c3.5,1,5.4,2.7,6.2,5.6c0.9-2.9,2.8-4.6,6.2-5.6c-3.3-1-5.2-2.9-6.1-6.1
					C298,36.3,296,38.1,292.7,39.1z"/>
			</g>
		</g>
		<g>
			<g>
				<path d="M462.2,46.4l-0.7,0c-0.7-4-2.7-5.9-7.4-6.9v-0.7c4.4-0.9,6.5-3,7.6-7.3l0.7,0c0.7,4.2,2.8,6.3,7.3,7.2v0.7
					C464.9,40.5,462.9,42.4,462.2,46.4z M455.6,39.1c3.5,1,5.4,2.7,6.2,5.6c0.9-2.9,2.8-4.6,6.2-5.6c-3.3-1-5.2-2.9-6.1-6.1
					C460.9,36.3,458.9,38.1,455.6,39.1z"/>
			</g>
		</g>
		<g>
			<g>
				<path d="M625.1,46.4l-0.7,0c-0.7-4-2.7-5.9-7.4-6.9v-0.7c4.4-0.9,6.5-3,7.6-7.3l0.7,0c0.7,4.2,2.8,6.3,7.3,7.2v0.7
					C627.8,40.5,625.8,42.4,625.1,46.4z M618.5,39.1c3.5,1,5.4,2.7,6.2,5.6c0.9-2.9,2.8-4.6,6.2-5.6c-3.3-1-5.2-2.9-6.1-6.1
					C623.8,36.3,621.8,38.1,618.5,39.1z"/>
			</g>
		</g>
		<g>
			<g>
				<path d="M786.6,46.4l-0.7,0c-0.7-4-2.7-5.9-7.4-6.9v-0.7c4.4-0.9,6.5-3,7.6-7.3l0.7,0c0.7,4.2,2.8,6.3,7.3,7.2v0.7
					C789.3,40.5,787.3,42.4,786.6,46.4z M780,39.1c3.5,1,5.4,2.7,6.2,5.6c0.9-2.9,2.8-4.6,6.2-5.6c-3.3-1-5.2-2.9-6.1-6.1
					C785.2,36.3,783.3,38.1,780,39.1z"/>
			</g>
		</g>
		<g>
			<g>
				<path d="M950.9,46.4l-0.7,0c-0.7-4-2.7-5.9-7.4-6.9v-0.7c4.4-0.9,6.5-3,7.6-7.3l0.7,0c0.7,4.2,2.8,6.3,7.3,7.2v0.7
					C953.6,40.5,951.6,42.4,950.9,46.4z M944.3,39.1c3.5,1,5.4,2.7,6.2,5.6c0.9-2.9,2.8-4.6,6.2-5.6c-3.3-1-5.2-2.9-6.1-6.1
					C949.6,36.3,947.6,38.1,944.3,39.1z"/>
			</g>
		</g>
		<g>
			<g>
				<path d="M1115.9,46.4l-0.7,0c-0.7-4-2.7-5.9-7.4-6.9v-0.7c4.4-0.9,6.5-3,7.6-7.3l0.7,0c0.7,4.2,2.8,6.3,7.3,7.2v0.7
					C1118.6,40.5,1116.6,42.4,1115.9,46.4z M1109.3,39.1c3.5,1,5.4,2.7,6.2,5.6c0.9-2.9,2.8-4.6,6.2-5.6c-3.3-1-5.2-2.9-6.1-6.1
					C1114.5,36.3,1112.6,38.1,1109.3,39.1z"/>
			</g>
		</g>
		<g>
			<g>
				<g>
					<path d="M1385.4,59.6v-0.4c1.8,0,3.2-1.1,3.2-5.4v-45c0-1.6-1-2.4-2.5-1.8l-0.6,0.2V6.8l10.1-4.8v38.7
						c5.5-8.1,14.1-19.4,25.1-19.4c0.1,3.2,0.2,6.6-3.8,6.6c-6.7,0-10.6,1.6-13.5,4.1l14,22c2.8,4.4,4.8,5.4,6.6,5.4v0.4h-13.7v-0.4
						c1.8,0,2.5-1.1-0.3-5.4l-10.8-17.1c-1.2,1.6-2.3,3.4-3.6,5.2v11.9c0,4.3,1.4,5.4,3.2,5.4v0.4H1385.4z"/>
				</g>
			</g>
			<g>
				<g>
					<path d="M1365.7,2.4c0.7,4.4,3,6.6,7.5,7.5c-4.6,1-6.9,2.8-7.7,7.2c-0.7-4.4-3.1-6.2-7.7-7.2C1362.4,9,1364.6,6.8,1365.7,2.4z"
						/>
				</g>
			</g>
			<g>
				<g>
					<path d="M1309.9,59.6v-0.4c1.8,0,3.2-1.1,3.2-5.4v-45c0-1.6-1-2.4-2.5-1.8l-0.6,0.2V6.8l10.1-4.8v38.7
						c5.5-8.1,14.1-19.4,25.1-19.4c0.1,3.2,0.2,6.6-3.8,6.6c-6.7,0-10.6,1.6-13.5,4.1l14,22c2.8,4.4,4.8,5.4,6.6,5.4v0.4h-13.7v-0.4
						c1.8,0,2.5-1.1-0.3-5.4l-10.8-17.1c-1.2,1.6-2.3,3.4-3.6,5.2v11.9c0,4.3,1.4,5.4,3.2,5.4v0.4H1309.9z"/>
				</g>
			</g>
			<g>
				<g>
					<path d="M1346.6,26.4V26l10.1-4.8v12.1c0,10.7-0.8,25.4,8.3,25.4c4.6,0,9.3-3.8,11.6-9.3V28c0-1.6-1-2.4-2.5-1.8l-0.6,0.2V26
						l10.1-4.8v32.7c0,4.3,1.4,5.4,3.2,5.4v0.4h-7.4c-1.6,0-2.7-1.1-2.7-2.7v-5.7c-3,5.5-8,9.1-14.5,9.1c-12,0-12.4-10.7-12.4-21.1
						V28c0-1.6-1-2.4-2.5-1.8L1346.6,26.4z"/>
				</g>
			</g>
		</g>
		<g>
			<g>
				<g>
					<path d="M1548.3,59.2v-0.4c1.8,0,3.2-1.1,3.2-5.4v-45c0-1.6-1-2.4-2.5-1.8l-0.6,0.2V6.4l10.1-4.8v38.7
						c5.5-8.1,14.1-19.4,25.1-19.4c0.1,3.2,0.2,6.6-3.8,6.6c-6.7,0-10.6,1.6-13.5,4.1l14,22c2.8,4.4,4.8,5.4,6.6,5.4v0.4h-13.7v-0.4
						c1.8,0,2.5-1.1-0.3-5.4L1562,36.4c-1.2,1.6-2.3,3.4-3.6,5.2v11.9c0,4.3,1.4,5.4,3.2,5.4v0.4H1548.3z"/>
				</g>
			</g>
			<g>
				<g>
					<path d="M1528.6,2.1c0.7,4.4,3,6.6,7.5,7.5c-4.6,1-6.9,2.8-7.7,7.2c-0.7-4.4-3.1-6.2-7.7-7.2C1525.3,8.6,1527.5,6.4,1528.6,2.1
						z"/>
				</g>
			</g>
			<g>
				<g>
					<path d="M1472.8,59.2v-0.4c1.8,0,3.2-1.1,3.2-5.4v-45c0-1.6-1-2.4-2.5-1.8l-0.6,0.2V6.4l10.1-4.8v38.7
						c5.5-8.1,14.1-19.4,25.1-19.4c0.1,3.2,0.2,6.6-3.8,6.6c-6.7,0-10.6,1.6-13.5,4.1l14,22c2.8,4.4,4.8,5.4,6.6,5.4v0.4h-13.7v-0.4
						c1.8,0,2.5-1.1-0.3-5.4l-10.8-17.1c-1.2,1.6-2.3,3.4-3.6,5.2v11.9c0,4.3,1.4,5.4,3.2,5.4v0.4H1472.8z"/>
				</g>
			</g>
			<g>
				<g>
					<path d="M1509.5,26v-0.4l10.1-4.8v12.1c0,10.7-0.8,25.4,8.3,25.4c4.6,0,9.3-3.8,11.6-9.3V27.6c0-1.6-1-2.4-2.5-1.8l-0.6,0.2
						v-0.4l10.1-4.8v32.7c0,4.3,1.4,5.4,3.2,5.4v0.4h-7.4c-1.6,0-2.7-1.1-2.7-2.7v-5.7c-3,5.5-8,9.1-14.5,9.1
						c-12,0-12.4-10.7-12.4-21.1V27.6c0-1.6-1-2.4-2.5-1.8L1509.5,26z"/>
				</g>
			</g>
		</g>
		<g>
			<g>
				<g>
					<path d="M1711.2,58.8v-0.4c1.8,0,3.2-1.1,3.2-5.4V8c0-1.6-1-2.4-2.5-1.8l-0.6,0.2V6l10.1-4.8v38.7c5.5-8.1,14.1-19.4,25.1-19.4
						c0.1,3.2,0.2,6.6-3.8,6.6c-6.7,0-10.6,1.6-13.5,4.1l14,22c2.8,4.4,4.8,5.4,6.6,5.4v0.4h-13.7v-0.4c1.8,0,2.5-1.1-0.3-5.4
						L1724.9,36c-1.2,1.6-2.3,3.4-3.6,5.2V53c0,4.3,1.4,5.4,3.2,5.4v0.4H1711.2z"/>
				</g>
			</g>
			<g>
				<g>
					<path d="M1691.5,1.7c0.7,4.4,3,6.6,7.5,7.5c-4.6,1-6.9,2.8-7.7,7.2c-0.7-4.4-3.1-6.2-7.7-7.2C1688.2,8.2,1690.4,6,1691.5,1.7z"
						/>
				</g>
			</g>
			<g>
				<g>
					<path d="M1635.7,58.8v-0.4c1.8,0,3.2-1.1,3.2-5.4V8c0-1.6-1-2.4-2.5-1.8l-0.6,0.2V6l10.1-4.8v38.7c5.5-8.1,14.1-19.4,25.1-19.4
						c0.1,3.2,0.2,6.6-3.8,6.6c-6.7,0-10.6,1.6-13.5,4.1l14,22c2.8,4.4,4.8,5.4,6.6,5.4v0.4h-13.7v-0.4c1.8,0,2.5-1.1-0.3-5.4
						L1649.4,36c-1.2,1.6-2.3,3.4-3.6,5.2V53c0,4.3,1.4,5.4,3.2,5.4v0.4H1635.7z"/>
				</g>
			</g>
			<g>
				<g>
					<path d="M1672.4,25.6v-0.4l10.1-4.8v12.1c0,10.7-0.8,25.4,8.3,25.4c4.6,0,9.3-3.8,11.6-9.3V27.2c0-1.6-1-2.4-2.5-1.8l-0.6,0.2
						v-0.4l10.1-4.8V53c0,4.3,1.4,5.4,3.2,5.4v0.4h-7.4c-1.6,0-2.7-1.1-2.7-2.7v-5.7c-3,5.5-8,9.1-14.5,9.1
						c-12,0-12.4-10.7-12.4-21.1V27.2c0-1.6-1-2.4-2.5-1.8L1672.4,25.6z"/>
				</g>
			</g>
		</g>
		<g>
			<g>
				<path d="M1282,46l-0.7,0c-0.7-4-2.7-5.9-7.4-6.9v-0.7c4.4-0.9,6.5-3,7.6-7.3l0.7,0c0.7,4.2,2.8,6.3,7.3,7.2v0.7
					C1284.8,40.1,1282.7,42,1282,46z M1275.4,38.8c3.5,1,5.4,2.7,6.2,5.6c0.9-2.9,2.8-4.6,6.2-5.6c-3.3-1-5.2-2.9-6.1-6.1
					C1280.7,35.9,1278.7,37.8,1275.4,38.8z"/>
			</g>
		</g>
		<g>
			<g>
				<path d="M1446.3,46l-0.7,0c-0.7-4-2.7-5.9-7.4-6.9v-0.7c4.4-0.9,6.5-3,7.6-7.3l0.7,0c0.7,4.2,2.8,6.3,7.3,7.2v0.7
					C1449.1,40.1,1447,42,1446.3,46z M1439.7,38.8c3.5,1,5.4,2.7,6.2,5.6c0.9-2.9,2.8-4.6,6.2-5.6c-3.3-1-5.2-2.9-6.1-6.1
					C1445,35.9,1443,37.8,1439.7,38.8z"/>
			</g>
		</g>
		<g>
			<g>
				<path d="M1611.3,46l-0.7,0c-0.7-4-2.7-5.9-7.4-6.9v-0.7c4.4-0.9,6.5-3,7.6-7.3l0.7,0c0.7,4.2,2.8,6.3,7.3,7.2v0.7
					C1614,40.1,1612,42,1611.3,46z M1604.7,38.8c3.5,1,5.4,2.7,6.2,5.6c0.9-2.9,2.8-4.6,6.2-5.6c-3.3-1-5.2-2.9-6.1-6.1
					C1609.9,35.9,1608,37.8,1604.7,38.8z"/>
			</g>
		</g>
	</g>
	<g>
		<g>
			<g>
				<g>
					<path d="M82.7,259.7v-0.4c1.8,0,3.2-1.1,3.2-5.4v-45c0-1.6-1-2.4-2.5-1.8l-0.6,0.2v-0.4l10.1-4.8v38.7
						c5.5-8.1,14.1-19.4,25.1-19.4c0.1,3.2,0.2,6.6-3.8,6.6c-6.7,0-10.6,1.6-13.5,4.1l14,22c2.8,4.4,4.8,5.4,6.6,5.4v0.4h-13.7v-0.4
						c1.8,0,2.5-1.1-0.3-5.4l-10.8-17.1c-1.2,1.6-2.3,3.4-3.6,5.2v11.9c0,4.3,1.4,5.4,3.2,5.4v0.4H82.7z"/>
				</g>
			</g>
			<g>
				<g>
					<path d="M62.9,202.6c0.7,4.4,3,6.6,7.5,7.5c-4.6,1-6.9,2.8-7.7,7.2c-0.7-4.4-3.1-6.2-7.7-7.2C59.6,209.2,61.8,206.9,62.9,202.6
						z"/>
				</g>
			</g>
			<g>
				<g>
					<path d="M7.2,259.7v-0.4c1.8,0,3.2-1.1,3.2-5.4v-45c0-1.6-1-2.4-2.5-1.8l-0.6,0.2v-0.4l10.1-4.8v38.7
						c5.5-8.1,14.1-19.4,25.1-19.4c0.1,3.2,0.2,6.6-3.8,6.6c-6.7,0-10.6,1.6-13.5,4.1l14,22c2.8,4.4,4.8,5.4,6.6,5.4v0.4H32v-0.4
						c1.8,0,2.5-1.1-0.3-5.4l-10.8-17.1c-1.2,1.6-2.3,3.4-3.6,5.2v11.9c0,4.3,1.4,5.4,3.2,5.4v0.4H7.2z"/>
				</g>
			</g>
			<g>
				<g>
					<path d="M43.8,226.5v-0.4l10.1-4.8v12.1c0,10.7-0.8,25.4,8.3,25.4c4.6,0,9.3-3.8,11.6-9.3v-21.4c0-1.6-1-2.4-2.5-1.8l-0.6,0.2
						v-0.4l10.1-4.8v32.7c0,4.3,1.4,5.4,3.2,5.4v0.4h-7.4c-1.6,0-2.7-1.1-2.7-2.7v-5.7c-3,5.5-8,9.1-14.5,9.1
						c-12,0-12.4-10.7-12.4-21.1v-11.2c0-1.6-1-2.4-2.5-1.8L43.8,226.5z"/>
				</g>
			</g>
		</g>
		<g>
			<g>
				<g>
					<path d="M245.6,259.3v-0.4c1.8,0,3.2-1.1,3.2-5.4v-45c0-1.6-1-2.4-2.5-1.8l-0.6,0.2v-0.4l10.1-4.8v38.7
						c5.5-8.1,14.1-19.4,25.1-19.4c0.1,3.2,0.2,6.6-3.8,6.6c-6.7,0-10.6,1.6-13.5,4.1l14,22c2.8,4.4,4.8,5.4,6.6,5.4v0.4h-13.7v-0.4
						c1.8,0,2.5-1.1-0.3-5.4l-10.8-17.1c-1.2,1.6-2.3,3.4-3.6,5.2v11.9c0,4.3,1.4,5.4,3.2,5.4v0.4H245.6z"/>
				</g>
			</g>
			<g>
				<g>
					<path d="M225.8,202.2c0.7,4.4,3,6.6,7.5,7.5c-4.6,1-6.9,2.8-7.7,7.2c-0.7-4.4-3.1-6.2-7.7-7.2
						C222.5,208.8,224.7,206.6,225.8,202.2z"/>
				</g>
			</g>
			<g>
				<g>
					<path d="M170.1,259.3v-0.4c1.8,0,3.2-1.1,3.2-5.4v-45c0-1.6-1-2.4-2.5-1.8l-0.6,0.2v-0.4l10.1-4.8v38.7
						c5.5-8.1,14.1-19.4,25.1-19.4c0.1,3.2,0.2,6.6-3.8,6.6c-6.7,0-10.6,1.6-13.5,4.1l14,22c2.8,4.4,4.8,5.4,6.6,5.4v0.4h-13.7v-0.4
						c1.8,0,2.5-1.1-0.3-5.4l-10.8-17.1c-1.2,1.6-2.3,3.4-3.6,5.2v11.9c0,4.3,1.4,5.4,3.2,5.4v0.4H170.1z"/>
				</g>
			</g>
			<g>
				<g>
					<path d="M206.7,226.1v-0.4l10.1-4.8V233c0,10.7-0.8,25.4,8.3,25.4c4.6,0,9.3-3.8,11.6-9.3v-21.4c0-1.6-1-2.4-2.5-1.8l-0.6,0.2
						v-0.4l10.1-4.8v32.7c0,4.3,1.4,5.4,3.2,5.4v0.4h-7.4c-1.6,0-2.7-1.1-2.7-2.7V251c-3,5.5-8,9.1-14.5,9.1
						c-12,0-12.4-10.7-12.4-21.1v-11.2c0-1.6-1-2.4-2.5-1.8L206.7,226.1z"/>
				</g>
			</g>
		</g>
		<g>
			<g>
				<g>
					<path d="M408.5,258.9v-0.4c1.8,0,3.2-1.1,3.2-5.4v-45c0-1.6-1-2.4-2.5-1.8l-0.6,0.2v-0.4l10.1-4.8V240
						c5.5-8.1,14.1-19.4,25.1-19.4c0.1,3.2,0.2,6.6-3.8,6.6c-6.7,0-10.6,1.6-13.5,4.1l14,22c2.8,4.4,4.8,5.4,6.6,5.4v0.4h-13.7v-0.4
						c1.8,0,2.5-1.1-0.3-5.4l-10.8-17.1c-1.2,1.6-2.3,3.4-3.6,5.2v11.9c0,4.3,1.4,5.4,3.2,5.4v0.4H408.5z"/>
				</g>
			</g>
			<g>
				<g>
					<path d="M388.7,201.8c0.7,4.4,3,6.6,7.5,7.5c-4.6,1-6.9,2.8-7.7,7.2c-0.7-4.4-3.1-6.2-7.7-7.2
						C385.4,208.4,387.6,206.2,388.7,201.8z"/>
				</g>
			</g>
			<g>
				<g>
					<path d="M332.9,258.9v-0.4c1.8,0,3.2-1.1,3.2-5.4v-45c0-1.6-1-2.4-2.5-1.8l-0.6,0.2v-0.4l10.1-4.8V240
						c5.5-8.1,14.1-19.4,25.1-19.4c0.1,3.2,0.2,6.6-3.8,6.6c-6.7,0-10.6,1.6-13.5,4.1l14,22c2.8,4.4,4.8,5.4,6.6,5.4v0.4h-13.7v-0.4
						c1.8,0,2.5-1.1-0.3-5.4l-10.8-17.1c-1.2,1.6-2.3,3.4-3.6,5.2v11.9c0,4.3,1.4,5.4,3.2,5.4v0.4H332.9z"/>
				</g>
			</g>
			<g>
				<g>
					<path d="M369.6,225.7v-0.4l10.1-4.8v12.1c0,10.7-0.8,25.4,8.3,25.4c4.6,0,9.3-3.8,11.6-9.3v-21.4c0-1.6-1-2.4-2.5-1.8l-0.6,0.2
						v-0.4l10.1-4.8v32.7c0,4.3,1.4,5.4,3.2,5.4v0.4h-7.4c-1.6,0-2.7-1.1-2.7-2.7v-5.7c-3,5.5-8,9.1-14.5,9.1
						c-12,0-12.4-10.7-12.4-21.1v-11.2c0-1.6-1-2.4-2.5-1.8L369.6,225.7z"/>
				</g>
			</g>
		</g>
		<g>
			<g>
				<g>
					<path d="M571.4,258.6v-0.4c1.8,0,3.2-1.1,3.2-5.4v-45c0-1.6-1-2.4-2.5-1.8l-0.6,0.2v-0.4l10.1-4.8v38.7
						c5.5-8.1,14.1-19.4,25.1-19.4c0.1,3.2,0.2,6.6-3.8,6.6c-6.7,0-10.6,1.6-13.5,4.1l14,22c2.8,4.4,4.8,5.4,6.6,5.4v0.4h-13.7v-0.4
						c1.8,0,2.5-1.1-0.3-5.4L585,235.7c-1.2,1.6-2.3,3.4-3.6,5.2v11.9c0,4.3,1.4,5.4,3.2,5.4v0.4H571.4z"/>
				</g>
			</g>
			<g>
				<g>
					<path d="M551.6,201.4c0.7,4.4,3,6.6,7.5,7.5c-4.6,1-6.9,2.8-7.7,7.2c-0.7-4.4-3.1-6.2-7.7-7.2
						C548.3,208,550.5,205.8,551.6,201.4z"/>
				</g>
			</g>
			<g>
				<g>
					<path d="M495.8,258.6v-0.4c1.8,0,3.2-1.1,3.2-5.4v-45c0-1.6-1-2.4-2.5-1.8l-0.6,0.2v-0.4l10.1-4.8v38.7
						c5.5-8.1,14.1-19.4,25.1-19.4c0.1,3.2,0.2,6.6-3.8,6.6c-6.7,0-10.6,1.6-13.5,4.1l14,22c2.8,4.4,4.8,5.4,6.6,5.4v0.4h-13.7v-0.4
						c1.8,0,2.5-1.1-0.3-5.4l-10.8-17.1c-1.2,1.6-2.3,3.4-3.6,5.2v11.9c0,4.3,1.4,5.4,3.2,5.4v0.4H495.8z"/>
				</g>
			</g>
			<g>
				<g>
					<path d="M532.5,225.4V225l10.1-4.8v12.1c0,10.7-0.8,25.4,8.3,25.4c4.6,0,9.3-3.8,11.6-9.3V227c0-1.6-1-2.4-2.5-1.8l-0.6,0.2
						V225l10.1-4.8v32.7c0,4.3,1.4,5.4,3.2,5.4v0.4h-7.4c-1.6,0-2.7-1.1-2.7-2.7v-5.7c-3,5.5-8,9.1-14.5,9.1
						c-12,0-12.4-10.7-12.4-21.1V227c0-1.6-1-2.4-2.5-1.8L532.5,225.4z"/>
				</g>
			</g>
		</g>
		<g>
			<g>
				<g>
					<path d="M734.3,258.2v-0.4c1.8,0,3.2-1.1,3.2-5.4v-45c0-1.6-1-2.4-2.5-1.8l-0.6,0.2v-0.4l10.1-4.8v38.7
						c5.5-8.1,14.1-19.4,25.1-19.4c0.1,3.2,0.2,6.6-3.8,6.6c-6.7,0-10.6,1.6-13.5,4.1l14,22c2.8,4.4,4.8,5.4,6.6,5.4v0.4h-13.7v-0.4
						c1.8,0,2.5-1.1-0.3-5.4l-10.8-17.1c-1.2,1.6-2.3,3.4-3.6,5.2v11.9c0,4.3,1.4,5.4,3.2,5.4v0.4H734.3z"/>
				</g>
			</g>
			<g>
				<g>
					<path d="M714.5,201c0.7,4.4,3,6.6,7.5,7.5c-4.6,1-6.9,2.8-7.7,7.2c-0.7-4.4-3.1-6.2-7.7-7.2C711.2,207.6,713.4,205.4,714.5,201
						z"/>
				</g>
			</g>
			<g>
				<g>
					<path d="M658.7,258.2v-0.4c1.8,0,3.2-1.1,3.2-5.4v-45c0-1.6-1-2.4-2.5-1.8l-0.6,0.2v-0.4l10.1-4.8v38.7
						c5.5-8.1,14.1-19.4,25.1-19.4c0.1,3.2,0.2,6.6-3.8,6.6c-6.7,0-10.6,1.6-13.5,4.1l14,22c2.8,4.4,4.8,5.4,6.6,5.4v0.4h-13.7v-0.4
						c1.8,0,2.5-1.1-0.3-5.4l-10.8-17.1c-1.2,1.6-2.3,3.4-3.6,5.2v11.9c0,4.3,1.4,5.4,3.2,5.4v0.4H658.7z"/>
				</g>
			</g>
			<g>
				<g>
					<path d="M695.4,225v-0.4l10.1-4.8v12.1c0,10.7-0.8,25.4,8.3,25.4c4.6,0,9.3-3.8,11.6-9.3v-21.4c0-1.6-1-2.4-2.5-1.8l-0.6,0.2
						v-0.4l10.1-4.8v32.7c0,4.3,1.4,5.4,3.2,5.4v0.4h-7.4c-1.6,0-2.7-1.1-2.7-2.7v-5.7c-3,5.5-8,9.1-14.5,9.1
						c-12,0-12.4-10.7-12.4-21.1v-11.2c0-1.6-1-2.4-2.5-1.8L695.4,225z"/>
				</g>
			</g>
		</g>
		<g>
			<g>
				<g>
					<path d="M897.2,257.8v-0.4c1.8,0,3.2-1.1,3.2-5.4v-45c0-1.6-1-2.4-2.5-1.8l-0.6,0.2V205l10.1-4.8v38.7
						c5.5-8.1,14.1-19.4,25.1-19.4c0.1,3.2,0.2,6.6-3.8,6.6c-6.7,0-10.6,1.6-13.5,4.1l14,22c2.8,4.4,4.8,5.4,6.6,5.4v0.4H922v-0.4
						c1.8,0,2.5-1.1-0.3-5.4L910.8,235c-1.2,1.6-2.3,3.4-3.6,5.2V252c0,4.3,1.4,5.4,3.2,5.4v0.4H897.2z"/>
				</g>
			</g>
			<g>
				<g>
					<path d="M877.4,200.7c0.7,4.4,3,6.6,7.5,7.5c-4.6,1-6.9,2.8-7.7,7.2c-0.7-4.4-3.1-6.2-7.7-7.2
						C874.1,207.2,876.3,205,877.4,200.7z"/>
				</g>
			</g>
			<g>
				<g>
					<path d="M821.6,257.8v-0.4c1.8,0,3.2-1.1,3.2-5.4v-45c0-1.6-1-2.4-2.5-1.8l-0.6,0.2V205l10.1-4.8v38.7
						c5.5-8.1,14.1-19.4,25.1-19.4c0.1,3.2,0.2,6.6-3.8,6.6c-6.7,0-10.6,1.6-13.5,4.1l14,22c2.8,4.4,4.8,5.4,6.6,5.4v0.4h-13.7v-0.4
						c1.8,0,2.5-1.1-0.3-5.4L835.3,235c-1.2,1.6-2.3,3.4-3.6,5.2V252c0,4.3,1.4,5.4,3.2,5.4v0.4H821.6z"/>
				</g>
			</g>
			<g>
				<g>
					<path d="M858.3,224.6v-0.4l10.1-4.8v12.1c0,10.7-0.8,25.4,8.3,25.4c4.6,0,9.3-3.8,11.6-9.3v-21.4c0-1.6-1-2.4-2.5-1.8l-0.6,0.2
						v-0.4l10.1-4.8V252c0,4.3,1.4,5.4,3.2,5.4v0.4H891c-1.6,0-2.7-1.1-2.7-2.7v-5.7c-3,5.5-8,9.1-14.5,9.1
						c-12,0-12.4-10.7-12.4-21.1v-11.2c0-1.6-1-2.4-2.5-1.8L858.3,224.6z"/>
				</g>
			</g>
		</g>
		<g>
			<g>
				<g>
					<path d="M1060.1,257.4V257c1.8,0,3.2-1.1,3.2-5.4v-45c0-1.6-1-2.4-2.5-1.8l-0.6,0.2v-0.4l10.1-4.8v38.7
						c5.5-8.1,14.1-19.4,25.1-19.4c0.1,3.2,0.2,6.6-3.8,6.6c-6.7,0-10.6,1.6-13.5,4.1l14,22c2.8,4.4,4.8,5.4,6.6,5.4v0.4h-13.7V257
						c1.8,0,2.5-1.1-0.3-5.4l-10.8-17.1c-1.2,1.6-2.3,3.4-3.6,5.2v11.9c0,4.3,1.4,5.4,3.2,5.4v0.4H1060.1z"/>
				</g>
			</g>
			<g>
				<g>
					<path d="M1040.3,200.3c0.7,4.4,3,6.6,7.5,7.5c-4.6,1-6.9,2.8-7.7,7.2c-0.7-4.4-3.1-6.2-7.7-7.2
						C1037,206.8,1039.2,204.6,1040.3,200.3z"/>
				</g>
			</g>
			<g>
				<g>
					<path d="M984.5,257.4V257c1.8,0,3.2-1.1,3.2-5.4v-45c0-1.6-1-2.4-2.5-1.8l-0.6,0.2v-0.4l10.1-4.8v38.7
						c5.5-8.1,14.1-19.4,25.1-19.4c0.1,3.2,0.2,6.6-3.8,6.6c-6.7,0-10.6,1.6-13.5,4.1l14,22c2.8,4.4,4.8,5.4,6.6,5.4v0.4h-13.7V257
						c1.8,0,2.5-1.1-0.3-5.4l-10.8-17.1c-1.2,1.6-2.3,3.4-3.6,5.2v11.9c0,4.3,1.4,5.4,3.2,5.4v0.4H984.5z"/>
				</g>
			</g>
			<g>
				<g>
					<path d="M1021.2,224.2v-0.4l10.1-4.8V231c0,10.7-0.8,25.4,8.3,25.4c4.6,0,9.3-3.8,11.6-9.3v-21.4c0-1.6-1-2.4-2.5-1.8l-0.6,0.2
						v-0.4l10.1-4.8v32.7c0,4.3,1.4,5.4,3.2,5.4v0.4h-7.4c-1.6,0-2.7-1.1-2.7-2.7V249c-3,5.5-8,9.1-14.5,9.1
						c-12,0-12.4-10.7-12.4-21.1v-11.2c0-1.6-1-2.4-2.5-1.8L1021.2,224.2z"/>
				</g>
			</g>
		</g>
		<g>
			<g>
				<g>
					<path d="M1223,257v-0.4c1.8,0,3.2-1.1,3.2-5.4v-45c0-1.6-1-2.4-2.5-1.8l-0.6,0.2v-0.4l10.1-4.8V238
						c5.5-8.1,14.1-19.4,25.1-19.4c0.1,3.2,0.2,6.6-3.8,6.6c-6.7,0-10.6,1.6-13.5,4.1l14,22c2.8,4.4,4.8,5.4,6.6,5.4v0.4h-13.7v-0.4
						c1.8,0,2.5-1.1-0.3-5.4l-10.8-17.1c-1.2,1.6-2.3,3.4-3.6,5.2v11.9c0,4.3,1.4,5.4,3.2,5.4v0.4H1223z"/>
				</g>
			</g>
			<g>
				<g>
					<path d="M1203.2,199.9c0.7,4.4,3,6.6,7.5,7.5c-4.6,1-6.9,2.8-7.7,7.2c-0.7-4.4-3.1-6.2-7.7-7.2
						C1199.9,206.5,1202.1,204.3,1203.2,199.9z"/>
				</g>
			</g>
			<g>
				<g>
					<path d="M1147.4,257v-0.4c1.8,0,3.2-1.1,3.2-5.4v-45c0-1.6-1-2.4-2.5-1.8l-0.6,0.2v-0.4l10.1-4.8V238
						c5.5-8.1,14.1-19.4,25.1-19.4c0.1,3.2,0.2,6.6-3.8,6.6c-6.7,0-10.6,1.6-13.5,4.1l14,22c2.8,4.4,4.8,5.4,6.6,5.4v0.4h-13.7v-0.4
						c1.8,0,2.5-1.1-0.3-5.4l-10.8-17.1c-1.2,1.6-2.3,3.4-3.6,5.2v11.9c0,4.3,1.4,5.4,3.2,5.4v0.4H1147.4z"/>
				</g>
			</g>
			<g>
				<g>
					<path d="M1184.1,223.8v-0.4l10.1-4.8v12.1c0,10.7-0.8,25.4,8.3,25.4c4.6,0,9.3-3.8,11.6-9.3v-21.4c0-1.6-1-2.4-2.5-1.8
						l-0.6,0.2v-0.4l10.1-4.8v32.7c0,4.3,1.4,5.4,3.2,5.4v0.4h-7.4c-1.6,0-2.7-1.1-2.7-2.7v-5.7c-3,5.5-8,9.1-14.5,9.1
						c-12,0-12.4-10.7-12.4-21.1v-11.2c0-1.6-1-2.4-2.5-1.8L1184.1,223.8z"/>
				</g>
			</g>
		</g>
		<g>
			<g>
				<path d="M143.6,244.2l-0.7,0c-0.7-4-2.7-5.9-7.4-6.9v-0.7c4.4-0.9,6.5-3,7.6-7.3l0.7,0c0.7,4.2,2.8,6.3,7.3,7.2v0.7
					C146.3,238.3,144.3,240.2,143.6,244.2z M137,237c3.5,1,5.4,2.7,6.2,5.6c0.9-2.9,2.8-4.6,6.2-5.6c-3.3-1-5.2-2.9-6.1-6.1
					C142.2,234.1,140.3,236,137,237z"/>
			</g>
		</g>
		<g>
			<g>
				<path d="M306.5,244.2l-0.7,0c-0.7-4-2.7-5.9-7.4-6.9v-0.7c4.4-0.9,6.5-3,7.6-7.3l0.7,0c0.7,4.2,2.8,6.3,7.3,7.2v0.7
					C309.2,238.3,307.2,240.2,306.5,244.2z M299.9,237c3.5,1,5.4,2.7,6.2,5.6c0.9-2.9,2.8-4.6,6.2-5.6c-3.3-1-5.2-2.9-6.1-6.1
					C305.1,234.1,303.2,236,299.9,237z"/>
			</g>
		</g>
		<g>
			<g>
				<path d="M469.4,244.2l-0.7,0c-0.7-4-2.7-5.9-7.4-6.9v-0.7c4.4-0.9,6.5-3,7.6-7.3l0.7,0c0.7,4.2,2.8,6.3,7.3,7.2v0.7
					C472.1,238.3,470.1,240.2,469.4,244.2z M462.8,237c3.5,1,5.4,2.7,6.2,5.6c0.9-2.9,2.8-4.6,6.2-5.6c-3.3-1-5.2-2.9-6.1-6.1
					C468,234.1,466.1,236,462.8,237z"/>
			</g>
		</g>
		<g>
			<g>
				<path d="M632.3,244.2l-0.7,0c-0.7-4-2.7-5.9-7.4-6.9v-0.7c4.4-0.9,6.5-3,7.6-7.3l0.7,0c0.7,4.2,2.8,6.3,7.3,7.2v0.7
					C635,238.3,633,240.2,632.3,244.2z M625.7,237c3.5,1,5.4,2.7,6.2,5.6c0.9-2.9,2.8-4.6,6.2-5.6c-3.3-1-5.2-2.9-6.1-6.1
					C630.9,234.1,629,236,625.7,237z"/>
			</g>
		</g>
		<g>
			<g>
				<path d="M793.7,244.2l-0.7,0c-0.7-4-2.7-5.9-7.4-6.9v-0.7c4.4-0.9,6.5-3,7.6-7.3l0.7,0c0.7,4.2,2.8,6.3,7.3,7.2v0.7
					C796.5,238.3,794.5,240.2,793.7,244.2z M787.2,237c3.5,1,5.4,2.7,6.2,5.6c0.9-2.9,2.8-4.6,6.2-5.6c-3.3-1-5.2-2.9-6.1-6.1
					C792.4,234.1,790.5,236,787.2,237z"/>
			</g>
		</g>
		<g>
			<g>
				<path d="M958.1,244.2l-0.7,0c-0.7-4-2.7-5.9-7.4-6.9v-0.7c4.4-0.9,6.5-3,7.6-7.3l0.7,0c0.7,4.2,2.8,6.3,7.3,7.2v0.7
					C960.8,238.3,958.8,240.2,958.1,244.2z M951.5,237c3.5,1,5.4,2.7,6.2,5.6c0.9-2.9,2.8-4.6,6.2-5.6c-3.3-1-5.2-2.9-6.1-6.1
					C956.7,234.1,954.8,236,951.5,237z"/>
			</g>
		</g>
		<g>
			<g>
				<path d="M1123,244.2l-0.7,0c-0.7-4-2.7-5.9-7.4-6.9v-0.7c4.4-0.9,6.5-3,7.6-7.3l0.7,0c0.7,4.2,2.8,6.3,7.3,7.2v0.7
					C1125.7,238.3,1123.7,240.2,1123,244.2z M1116.4,237c3.5,1,5.4,2.7,6.2,5.6c0.9-2.9,2.8-4.6,6.2-5.6c-3.3-1-5.2-2.9-6.1-6.1
					C1121.7,234.1,1119.7,236,1116.4,237z"/>
			</g>
		</g>
		<g>
			<g>
				<g>
					<path d="M1392.6,257.4V257c1.8,0,3.2-1.1,3.2-5.4v-45c0-1.6-1-2.4-2.5-1.8l-0.6,0.2v-0.4l10.1-4.8v38.7
						c5.5-8.1,14.1-19.4,25.1-19.4c0.1,3.2,0.2,6.6-3.8,6.6c-6.7,0-10.6,1.6-13.5,4.1l14,22c2.8,4.4,4.8,5.4,6.6,5.4v0.4h-13.7V257
						c1.8,0,2.5-1.1-0.3-5.4l-10.8-17.1c-1.2,1.6-2.3,3.4-3.6,5.2v11.9c0,4.3,1.4,5.4,3.2,5.4v0.4H1392.6z"/>
				</g>
			</g>
			<g>
				<g>
					<path d="M1372.9,200.3c0.7,4.4,3,6.6,7.5,7.5c-4.6,1-6.9,2.8-7.7,7.2c-0.7-4.4-3.1-6.2-7.7-7.2
						C1369.5,206.8,1371.7,204.6,1372.9,200.3z"/>
				</g>
			</g>
			<g>
				<g>
					<path d="M1317.1,257.4V257c1.8,0,3.2-1.1,3.2-5.4v-45c0-1.6-1-2.4-2.5-1.8l-0.6,0.2v-0.4l10.1-4.8v38.7
						c5.5-8.1,14.1-19.4,25.1-19.4c0.1,3.2,0.2,6.6-3.8,6.6c-6.7,0-10.6,1.6-13.5,4.1l14,22c2.8,4.4,4.8,5.4,6.6,5.4v0.4h-13.7V257
						c1.8,0,2.5-1.1-0.3-5.4l-10.8-17.1c-1.2,1.6-2.3,3.4-3.6,5.2v11.9c0,4.3,1.4,5.4,3.2,5.4v0.4H1317.1z"/>
				</g>
			</g>
			<g>
				<g>
					<path d="M1353.7,224.2v-0.4l10.1-4.8V231c0,10.7-0.8,25.4,8.3,25.4c4.6,0,9.3-3.8,11.6-9.3v-21.4c0-1.6-1-2.4-2.5-1.8l-0.6,0.2
						v-0.4l10.1-4.8v32.7c0,4.3,1.4,5.4,3.2,5.4v0.4h-7.4c-1.6,0-2.7-1.1-2.7-2.7V249c-3,5.5-8,9.1-14.5,9.1
						c-12,0-12.4-10.7-12.4-21.1v-11.2c0-1.6-1-2.4-2.5-1.8L1353.7,224.2z"/>
				</g>
			</g>
		</g>
		<g>
			<g>
				<g>
					<path d="M1555.5,257v-0.4c1.8,0,3.2-1.1,3.2-5.4v-45c0-1.6-1-2.4-2.5-1.8l-0.6,0.2v-0.4l10.1-4.8V238
						c5.5-8.1,14.1-19.4,25.1-19.4c0.1,3.2,0.2,6.6-3.8,6.6c-6.7,0-10.6,1.6-13.5,4.1l14,22c2.8,4.4,4.8,5.4,6.6,5.4v0.4h-13.7v-0.4
						c1.8,0,2.5-1.1-0.3-5.4l-10.8-17.1c-1.2,1.6-2.3,3.4-3.6,5.2v11.9c0,4.3,1.4,5.4,3.2,5.4v0.4H1555.5z"/>
				</g>
			</g>
			<g>
				<g>
					<path d="M1535.8,199.9c0.7,4.4,3,6.6,7.5,7.5c-4.6,1-6.9,2.8-7.7,7.2c-0.7-4.4-3.1-6.2-7.7-7.2
						C1532.4,206.5,1534.6,204.3,1535.8,199.9z"/>
				</g>
			</g>
			<g>
				<g>
					<path d="M1480,257v-0.4c1.8,0,3.2-1.1,3.2-5.4v-45c0-1.6-1-2.4-2.5-1.8l-0.6,0.2v-0.4l10.1-4.8V238
						c5.5-8.1,14.1-19.4,25.1-19.4c0.1,3.2,0.2,6.6-3.8,6.6c-6.7,0-10.6,1.6-13.5,4.1l14,22c2.8,4.4,4.8,5.4,6.6,5.4v0.4h-13.7v-0.4
						c1.8,0,2.5-1.1-0.3-5.4l-10.8-17.1c-1.2,1.6-2.3,3.4-3.6,5.2v11.9c0,4.3,1.4,5.4,3.2,5.4v0.4H1480z"/>
				</g>
			</g>
			<g>
				<g>
					<path d="M1516.6,223.8v-0.4l10.1-4.8v12.1c0,10.7-0.8,25.4,8.3,25.4c4.6,0,9.3-3.8,11.6-9.3v-21.4c0-1.6-1-2.4-2.5-1.8
						l-0.6,0.2v-0.4l10.1-4.8v32.7c0,4.3,1.4,5.4,3.2,5.4v0.4h-7.4c-1.6,0-2.7-1.1-2.7-2.7v-5.7c-3,5.5-8,9.1-14.5,9.1
						c-12,0-12.4-10.7-12.4-21.1v-11.2c0-1.6-1-2.4-2.5-1.8L1516.6,223.8z"/>
				</g>
			</g>
		</g>
		<g>
			<g>
				<g>
					<path d="M1718.4,256.6v-0.4c1.8,0,3.2-1.1,3.2-5.4v-45c0-1.6-1-2.4-2.5-1.8l-0.6,0.2v-0.4l10.1-4.8v38.7
						c5.5-8.1,14.1-19.4,25.1-19.4c0.1,3.2,0.2,6.6-3.8,6.6c-6.7,0-10.6,1.6-13.5,4.1l14,22c2.8,4.4,4.8,5.4,6.6,5.4v0.4h-13.7v-0.4
						c1.8,0,2.5-1.1-0.3-5.4l-10.8-17.1c-1.2,1.6-2.3,3.4-3.6,5.2v11.9c0,4.3,1.4,5.4,3.2,5.4v0.4H1718.4z"/>
				</g>
			</g>
			<g>
				<g>
					<path d="M1698.7,199.5c0.7,4.4,3,6.6,7.5,7.5c-4.6,1-6.9,2.8-7.7,7.2c-0.7-4.4-3.1-6.2-7.7-7.2
						C1695.3,206.1,1697.5,203.9,1698.7,199.5z"/>
				</g>
			</g>
			<g>
				<g>
					<path d="M1642.9,256.6v-0.4c1.8,0,3.2-1.1,3.2-5.4v-45c0-1.6-1-2.4-2.5-1.8l-0.6,0.2v-0.4l10.1-4.8v38.7
						c5.5-8.1,14.1-19.4,25.1-19.4c0.1,3.2,0.2,6.6-3.8,6.6c-6.7,0-10.6,1.6-13.5,4.1l14,22c2.8,4.4,4.8,5.4,6.6,5.4v0.4h-13.7v-0.4
						c1.8,0,2.5-1.1-0.3-5.4l-10.8-17.1c-1.2,1.6-2.3,3.4-3.6,5.2v11.9c0,4.3,1.4,5.4,3.2,5.4v0.4H1642.9z"/>
				</g>
			</g>
			<g>
				<g>
					<path d="M1679.5,223.4V223l10.1-4.8v12.1c0,10.7-0.8,25.4,8.3,25.4c4.6,0,9.3-3.8,11.6-9.3V225c0-1.6-1-2.4-2.5-1.8l-0.6,0.2
						V223l10.1-4.8v32.7c0,4.3,1.4,5.4,3.2,5.4v0.4h-7.4c-1.6,0-2.7-1.1-2.7-2.7v-5.7c-3,5.5-8,9.1-14.5,9.1
						c-12,0-12.4-10.7-12.4-21.1V225c0-1.6-1-2.4-2.5-1.8L1679.5,223.4z"/>
				</g>
			</g>
		</g>
		<g>
			<g>
				<path d="M1289.2,243.8l-0.7,0c-0.7-4-2.7-5.9-7.4-6.9v-0.7c4.4-0.9,6.5-3,7.6-7.3l0.7,0c0.7,4.2,2.8,6.3,7.3,7.2v0.7
					C1291.9,238,1289.9,239.8,1289.2,243.8z M1282.6,236.6c3.5,1,5.4,2.7,6.2,5.6c0.9-2.9,2.8-4.6,6.2-5.6c-3.3-1-5.2-2.9-6.1-6.1
					C1287.8,233.7,1285.9,235.6,1282.6,236.6z"/>
			</g>
		</g>
		<g>
			<g>
				<path d="M1453.5,243.8l-0.7,0c-0.7-4-2.7-5.9-7.4-6.9v-0.7c4.4-0.9,6.5-3,7.6-7.3l0.7,0c0.7,4.2,2.8,6.3,7.3,7.2v0.7
					C1456.2,238,1454.2,239.8,1453.5,243.8z M1446.9,236.6c3.5,1,5.4,2.7,6.2,5.6c0.9-2.9,2.8-4.6,6.2-5.6c-3.3-1-5.2-2.9-6.1-6.1
					C1452.1,233.7,1450.2,235.6,1446.9,236.6z"/>
			</g>
		</g>
		<g>
			<g>
				<path d="M1618.4,243.8l-0.7,0c-0.7-4-2.7-5.9-7.4-6.9v-0.7c4.4-0.9,6.5-3,7.6-7.3l0.7,0c0.7,4.2,2.8,6.3,7.3,7.2v0.7
					C1621.2,238,1619.2,239.8,1618.4,243.8z M1611.8,236.6c3.5,1,5.4,2.7,6.2,5.6c0.9-2.9,2.8-4.6,6.2-5.6c-3.3-1-5.2-2.9-6.1-6.1
					C1617.1,233.7,1615.1,235.6,1611.8,236.6z"/>
			</g>
		</g>
	</g>
	<g>
		<g>
			<g>
				<g>
					<path d="M150.5,160.6v-0.4c1.8,0,3.2-1.1,3.2-5.4v-45c0-1.6-1-2.4-2.5-1.8l-0.6,0.2v-0.4l10.1-4.8v38.7
						c5.5-8.1,14.1-19.4,25.1-19.4c0.1,3.2,0.2,6.6-3.8,6.6c-6.7,0-10.6,1.6-13.5,4.1l14,22c2.8,4.4,4.8,5.4,6.6,5.4v0.4h-13.7v-0.4
						c1.8,0,2.5-1.1-0.3-5.4l-10.8-17.1c-1.2,1.6-2.3,3.4-3.6,5.2v11.9c0,4.3,1.4,5.4,3.2,5.4v0.4H150.5z"/>
				</g>
			</g>
			<g>
				<g>
					<path d="M130.8,103.5c0.7,4.4,3,6.6,7.5,7.5c-4.6,1-6.9,2.8-7.7,7.2c-0.7-4.4-3.1-6.2-7.7-7.2
						C127.5,110,129.7,107.8,130.8,103.5z"/>
				</g>
			</g>
			<g>
				<g>
					<path d="M75,160.6v-0.4c1.8,0,3.2-1.1,3.2-5.4v-45c0-1.6-1-2.4-2.5-1.8l-0.6,0.2v-0.4l10.1-4.8v38.7
						c5.5-8.1,14.1-19.4,25.1-19.4c0.1,3.2,0.2,6.6-3.8,6.6c-6.7,0-10.6,1.6-13.5,4.1l14,22c2.8,4.4,4.8,5.4,6.6,5.4v0.4H99.9v-0.4
						c1.8,0,2.5-1.1-0.3-5.4l-10.8-17.1c-1.2,1.6-2.3,3.4-3.6,5.2v11.9c0,4.3,1.4,5.4,3.2,5.4v0.4H75z"/>
				</g>
			</g>
			<g>
				<g>
					<path d="M111.7,127.4V127l10.1-4.8v12.1c0,10.7-0.8,25.4,8.3,25.4c4.6,0,9.3-3.8,11.6-9.3V129c0-1.6-1-2.4-2.5-1.8l-0.6,0.2
						V127l10.1-4.8v32.7c0,4.3,1.4,5.4,3.2,5.4v0.4h-7.4c-1.6,0-2.7-1.1-2.7-2.7v-5.7c-3,5.5-8,9.1-14.5,9.1
						c-12,0-12.4-10.7-12.4-21.1V129c0-1.6-1-2.4-2.5-1.8L111.7,127.4z"/>
				</g>
			</g>
		</g>
		<g>
			<g>
				<g>
					<path d="M313.4,160.2v-0.4c1.8,0,3.2-1.1,3.2-5.4v-45c0-1.6-1-2.4-2.5-1.8l-0.6,0.2v-0.4l10.1-4.8v38.7
						c5.5-8.1,14.1-19.4,25.1-19.4c0.1,3.2,0.2,6.6-3.8,6.6c-6.7,0-10.6,1.6-13.5,4.1l14,22c2.8,4.4,4.8,5.4,6.6,5.4v0.4h-13.7v-0.4
						c1.8,0,2.5-1.1-0.3-5.4l-10.8-17.1c-1.2,1.6-2.3,3.4-3.6,5.2v11.9c0,4.3,1.4,5.4,3.2,5.4v0.4H313.4z"/>
				</g>
			</g>
			<g>
				<g>
					<path d="M293.7,103.1c0.7,4.4,3,6.6,7.5,7.5c-4.6,1-6.9,2.8-7.7,7.2c-0.7-4.4-3.1-6.2-7.7-7.2
						C290.4,109.7,292.6,107.4,293.7,103.1z"/>
				</g>
			</g>
			<g>
				<g>
					<path d="M237.9,160.2v-0.4c1.8,0,3.2-1.1,3.2-5.4v-45c0-1.6-1-2.4-2.5-1.8l-0.6,0.2v-0.4l10.1-4.8v38.7
						c5.5-8.1,14.1-19.4,25.1-19.4c0.1,3.2,0.2,6.6-3.8,6.6c-6.7,0-10.6,1.6-13.5,4.1l14,22c2.8,4.4,4.8,5.4,6.6,5.4v0.4h-13.7v-0.4
						c1.8,0,2.5-1.1-0.3-5.4l-10.8-17.1c-1.2,1.6-2.3,3.4-3.6,5.2v11.9c0,4.3,1.4,5.4,3.2,5.4v0.4H237.9z"/>
				</g>
			</g>
			<g>
				<g>
					<path d="M274.6,127v-0.4l10.1-4.8v12.1c0,10.7-0.8,25.4,8.3,25.4c4.6,0,9.3-3.8,11.6-9.3v-21.4c0-1.6-1-2.4-2.5-1.8l-0.6,0.2
						v-0.4l10.1-4.8v32.7c0,4.3,1.4,5.4,3.2,5.4v0.4h-7.4c-1.6,0-2.7-1.1-2.7-2.7v-5.7c-3,5.5-8,9.1-14.5,9.1
						c-12,0-12.4-10.7-12.4-21.1v-11.2c0-1.6-1-2.4-2.5-1.8L274.6,127z"/>
				</g>
			</g>
		</g>
		<g>
			<g>
				<g>
					<path d="M476.3,159.8v-0.4c1.8,0,3.2-1.1,3.2-5.4v-45c0-1.6-1-2.4-2.5-1.8l-0.6,0.2V107l10.1-4.8v38.7
						c5.5-8.1,14.1-19.4,25.1-19.4c0.1,3.2,0.2,6.6-3.8,6.6c-6.7,0-10.6,1.6-13.5,4.1l14,22c2.8,4.4,4.8,5.4,6.6,5.4v0.4h-13.7v-0.4
						c1.8,0,2.5-1.1-0.3-5.4L490,137c-1.2,1.6-2.3,3.4-3.6,5.2v11.9c0,4.3,1.4,5.4,3.2,5.4v0.4H476.3z"/>
				</g>
			</g>
			<g>
				<g>
					<path d="M456.6,102.7c0.7,4.4,3,6.6,7.5,7.5c-4.6,1-6.9,2.8-7.7,7.2c-0.7-4.4-3.1-6.2-7.7-7.2
						C453.3,109.3,455.5,107.1,456.6,102.7z"/>
				</g>
			</g>
			<g>
				<g>
					<path d="M400.8,159.8v-0.4c1.8,0,3.2-1.1,3.2-5.4v-45c0-1.6-1-2.4-2.5-1.8l-0.6,0.2V107l10.1-4.8v38.7
						c5.5-8.1,14.1-19.4,25.1-19.4c0.1,3.2,0.2,6.6-3.8,6.6c-6.7,0-10.6,1.6-13.5,4.1l14,22c2.8,4.4,4.8,5.4,6.6,5.4v0.4h-13.7v-0.4
						c1.8,0,2.5-1.1-0.3-5.4L414.5,137c-1.2,1.6-2.3,3.4-3.6,5.2v11.9c0,4.3,1.4,5.4,3.2,5.4v0.4H400.8z"/>
				</g>
			</g>
			<g>
				<g>
					<path d="M437.5,126.6v-0.4l10.1-4.8v12.1c0,10.7-0.8,25.4,8.3,25.4c4.6,0,9.3-3.8,11.6-9.3v-21.4c0-1.6-1-2.4-2.5-1.8l-0.6,0.2
						v-0.4l10.1-4.8v32.7c0,4.3,1.4,5.4,3.2,5.4v0.4h-7.4c-1.6,0-2.7-1.1-2.7-2.7v-5.7c-3,5.5-8,9.1-14.5,9.1
						c-12,0-12.4-10.7-12.4-21.1v-11.2c0-1.6-1-2.4-2.5-1.8L437.5,126.6z"/>
				</g>
			</g>
		</g>
		<g>
			<g>
				<g>
					<path d="M639.2,159.4v-0.4c1.8,0,3.2-1.1,3.2-5.4v-45c0-1.6-1-2.4-2.5-1.8l-0.6,0.2v-0.4l10.1-4.8v38.7
						c5.5-8.1,14.1-19.4,25.1-19.4c0.1,3.2,0.2,6.6-3.8,6.6c-6.7,0-10.6,1.6-13.5,4.1l14,22c2.8,4.4,4.8,5.4,6.6,5.4v0.4h-13.7v-0.4
						c1.8,0,2.5-1.1-0.3-5.4l-10.8-17.1c-1.2,1.6-2.3,3.4-3.6,5.2v11.9c0,4.3,1.4,5.4,3.2,5.4v0.4H639.2z"/>
				</g>
			</g>
			<g>
				<g>
					<path d="M619.5,102.3c0.7,4.4,3,6.6,7.5,7.5c-4.6,1-6.9,2.8-7.7,7.2c-0.7-4.4-3.1-6.2-7.7-7.2
						C616.2,108.9,618.4,106.7,619.5,102.3z"/>
				</g>
			</g>
			<g>
				<g>
					<path d="M563.7,159.4v-0.4c1.8,0,3.2-1.1,3.2-5.4v-45c0-1.6-1-2.4-2.5-1.8l-0.6,0.2v-0.4l10.1-4.8v38.7
						c5.5-8.1,14.1-19.4,25.1-19.4c0.1,3.2,0.2,6.6-3.8,6.6c-6.7,0-10.6,1.6-13.5,4.1l14,22c2.8,4.4,4.8,5.4,6.6,5.4v0.4h-13.7v-0.4
						c1.8,0,2.5-1.1-0.3-5.4l-10.8-17.1c-1.2,1.6-2.3,3.4-3.6,5.2v11.9c0,4.3,1.4,5.4,3.2,5.4v0.4H563.7z"/>
				</g>
			</g>
			<g>
				<g>
					<path d="M600.4,126.2v-0.4l10.1-4.8v12.1c0,10.7-0.8,25.4,8.3,25.4c4.6,0,9.3-3.8,11.6-9.3v-21.4c0-1.6-1-2.4-2.5-1.8l-0.6,0.2
						v-0.4l10.1-4.8v32.7c0,4.3,1.4,5.4,3.2,5.4v0.4H633c-1.6,0-2.7-1.1-2.7-2.7v-5.7c-3,5.5-8,9.1-14.5,9.1
						c-12,0-12.4-10.7-12.4-21.1v-11.2c0-1.6-1-2.4-2.5-1.8L600.4,126.2z"/>
				</g>
			</g>
		</g>
		<g>
			<g>
				<g>
					<path d="M802.1,159.1v-0.4c1.8,0,3.2-1.1,3.2-5.4v-45c0-1.6-1-2.4-2.5-1.8l-0.6,0.2v-0.4l10.1-4.8v38.7
						c5.5-8.1,14.1-19.4,25.1-19.4c0.1,3.2,0.2,6.6-3.8,6.6c-6.7,0-10.6,1.6-13.5,4.1l14,22c2.8,4.4,4.8,5.4,6.6,5.4v0.4H827v-0.4
						c1.8,0,2.5-1.1-0.3-5.4l-10.8-17.1c-1.2,1.6-2.3,3.4-3.6,5.2v11.9c0,4.3,1.4,5.4,3.2,5.4v0.4H802.1z"/>
				</g>
			</g>
			<g>
				<g>
					<path d="M782.4,101.9c0.7,4.4,3,6.6,7.5,7.5c-4.6,1-6.9,2.8-7.7,7.2c-0.7-4.4-3.1-6.2-7.7-7.2
						C779.1,108.5,781.3,106.3,782.4,101.9z"/>
				</g>
			</g>
			<g>
				<g>
					<path d="M726.6,159.1v-0.4c1.8,0,3.2-1.1,3.2-5.4v-45c0-1.6-1-2.4-2.5-1.8l-0.6,0.2v-0.4l10.1-4.8v38.7
						c5.5-8.1,14.1-19.4,25.1-19.4c0.1,3.2,0.2,6.6-3.8,6.6c-6.7,0-10.6,1.6-13.5,4.1l14,22c2.8,4.4,4.8,5.4,6.6,5.4v0.4h-13.7v-0.4
						c1.8,0,2.5-1.1-0.3-5.4l-10.8-17.1c-1.2,1.6-2.3,3.4-3.6,5.2v11.9c0,4.3,1.4,5.4,3.2,5.4v0.4H726.6z"/>
				</g>
			</g>
			<g>
				<g>
					<path d="M763.3,125.9v-0.4l10.1-4.8v12.1c0,10.7-0.8,25.4,8.3,25.4c4.6,0,9.3-3.8,11.6-9.3v-21.4c0-1.6-1-2.4-2.5-1.8l-0.6,0.2
						v-0.4l10.1-4.8v32.7c0,4.3,1.4,5.4,3.2,5.4v0.4h-7.4c-1.6,0-2.7-1.1-2.7-2.7v-5.7c-3,5.5-8,9.1-14.5,9.1
						c-12,0-12.4-10.7-12.4-21.1v-11.2c0-1.6-1-2.4-2.5-1.8L763.3,125.9z"/>
				</g>
			</g>
		</g>
		<g>
			<g>
				<g>
					<path d="M965,158.7v-0.4c1.8,0,3.2-1.1,3.2-5.4v-45c0-1.6-1-2.4-2.5-1.8l-0.6,0.2v-0.4l10.1-4.8v38.7
						c5.5-8.1,14.1-19.4,25.1-19.4c0.1,3.2,0.2,6.6-3.8,6.6c-6.7,0-10.6,1.6-13.5,4.1l14,22c2.8,4.4,4.8,5.4,6.6,5.4v0.4h-13.7v-0.4
						c1.8,0,2.5-1.1-0.3-5.4l-10.8-17.1c-1.2,1.6-2.3,3.4-3.6,5.2v11.9c0,4.3,1.4,5.4,3.2,5.4v0.4H965z"/>
				</g>
			</g>
			<g>
				<g>
					<path d="M945.3,101.6c0.7,4.4,3,6.6,7.5,7.5c-4.6,1-6.9,2.8-7.7,7.2c-0.7-4.4-3.1-6.2-7.7-7.2
						C942,108.1,944.2,105.9,945.3,101.6z"/>
				</g>
			</g>
			<g>
				<g>
					<path d="M889.5,158.7v-0.4c1.8,0,3.2-1.1,3.2-5.4v-45c0-1.6-1-2.4-2.5-1.8l-0.6,0.2v-0.4l10.1-4.8v38.7
						c5.5-8.1,14.1-19.4,25.1-19.4c0.1,3.2,0.2,6.6-3.8,6.6c-6.7,0-10.6,1.6-13.5,4.1l14,22c2.8,4.4,4.8,5.4,6.6,5.4v0.4h-13.7v-0.4
						c1.8,0,2.5-1.1-0.3-5.4l-10.8-17.1c-1.2,1.6-2.3,3.4-3.6,5.2v11.9c0,4.3,1.4,5.4,3.2,5.4v0.4H889.5z"/>
				</g>
			</g>
			<g>
				<g>
					<path d="M926.2,125.5v-0.4l10.1-4.8v12.1c0,10.7-0.8,25.4,8.3,25.4c4.6,0,9.3-3.8,11.6-9.3v-21.4c0-1.6-1-2.4-2.5-1.8l-0.6,0.2
						v-0.4l10.1-4.8v32.7c0,4.3,1.4,5.4,3.2,5.4v0.4h-7.4c-1.6,0-2.7-1.1-2.7-2.7v-5.7c-3,5.5-8,9.1-14.5,9.1
						c-12,0-12.4-10.7-12.4-21.1v-11.2c0-1.6-1-2.4-2.5-1.8L926.2,125.5z"/>
				</g>
			</g>
		</g>
		<g>
			<g>
				<g>
					<path d="M1127.9,158.3v-0.4c1.8,0,3.2-1.1,3.2-5.4v-45c0-1.6-1-2.4-2.5-1.8l-0.6,0.2v-0.4l10.1-4.8v38.7
						c5.5-8.1,14.1-19.4,25.1-19.4c0.1,3.2,0.2,6.6-3.8,6.6c-6.7,0-10.6,1.6-13.5,4.1l14,22c2.8,4.4,4.8,5.4,6.6,5.4v0.4h-13.7v-0.4
						c1.8,0,2.5-1.1-0.3-5.4l-10.8-17.1c-1.2,1.6-2.3,3.4-3.6,5.2v11.9c0,4.3,1.4,5.4,3.2,5.4v0.4H1127.9z"/>
				</g>
			</g>
			<g>
				<g>
					<path d="M1108.2,101.2c0.7,4.4,3,6.6,7.5,7.5c-4.6,1-6.9,2.8-7.7,7.2c-0.7-4.4-3.1-6.2-7.7-7.2
						C1104.9,107.7,1107.1,105.5,1108.2,101.2z"/>
				</g>
			</g>
			<g>
				<g>
					<path d="M1052.4,158.3v-0.4c1.8,0,3.2-1.1,3.2-5.4v-45c0-1.6-1-2.4-2.5-1.8l-0.6,0.2v-0.4l10.1-4.8v38.7
						c5.5-8.1,14.1-19.4,25.1-19.4c0.1,3.2,0.2,6.6-3.8,6.6c-6.7,0-10.6,1.6-13.5,4.1l14,22c2.8,4.4,4.8,5.4,6.6,5.4v0.4h-13.7v-0.4
						c1.8,0,2.5-1.1-0.3-5.4l-10.8-17.1c-1.2,1.6-2.3,3.4-3.6,5.2v11.9c0,4.3,1.4,5.4,3.2,5.4v0.4H1052.4z"/>
				</g>
			</g>
			<g>
				<g>
					<path d="M1089.1,125.1v-0.4l10.1-4.8v12.1c0,10.7-0.8,25.4,8.3,25.4c4.6,0,9.3-3.8,11.6-9.3v-21.4c0-1.6-1-2.4-2.5-1.8
						l-0.6,0.2v-0.4l10.1-4.8v32.7c0,4.3,1.4,5.4,3.2,5.4v0.4h-7.4c-1.6,0-2.7-1.1-2.7-2.7v-5.7c-3,5.5-8,9.1-14.5,9.1
						c-12,0-12.4-10.7-12.4-21.1v-11.2c0-1.6-1-2.4-2.5-1.8L1089.1,125.1z"/>
				</g>
			</g>
		</g>
		<g>
			<g>
				<path d="M48.5,145.5l-0.7,0c-0.7-4-2.7-5.9-7.4-6.9v-0.7c4.4-0.9,6.5-3,7.6-7.3l0.7,0c0.7,4.2,2.8,6.3,7.3,7.2v0.7
					C51.3,139.6,49.3,141.5,48.5,145.5z M41.9,138.3c3.5,1,5.4,2.7,6.2,5.6c0.9-2.9,2.8-4.6,6.2-5.6c-3.3-1-5.2-2.9-6.1-6.1
					C47.2,135.4,45.2,137.3,41.9,138.3z"/>
			</g>
		</g>
		<g>
			<g>
				<path d="M211.4,145.5l-0.7,0c-0.7-4-2.7-5.9-7.4-6.9v-0.7c4.4-0.9,6.5-3,7.6-7.3l0.7,0c0.7,4.2,2.8,6.3,7.3,7.2v0.7
					C214.2,139.6,212.2,141.5,211.4,145.5z M204.8,138.3c3.5,1,5.4,2.7,6.2,5.6c0.9-2.9,2.8-4.6,6.2-5.6c-3.3-1-5.2-2.9-6.1-6.1
					C210.1,135.4,208.1,137.3,204.8,138.3z"/>
			</g>
		</g>
		<g>
			<g>
				<path d="M374.3,145.5l-0.7,0c-0.7-4-2.7-5.9-7.4-6.9v-0.7c4.4-0.9,6.5-3,7.6-7.3l0.7,0c0.7,4.2,2.8,6.3,7.3,7.2v0.7
					C377.1,139.6,375,141.5,374.3,145.5z M367.7,138.3c3.5,1,5.4,2.7,6.2,5.6c0.9-2.9,2.8-4.6,6.2-5.6c-3.3-1-5.2-2.9-6.1-6.1
					C373,135.4,371,137.3,367.7,138.3z"/>
			</g>
		</g>
		<g>
			<g>
				<path d="M537.2,145.5l-0.7,0c-0.7-4-2.7-5.9-7.4-6.9v-0.7c4.4-0.9,6.5-3,7.6-7.3l0.7,0c0.7,4.2,2.8,6.3,7.3,7.2v0.7
					C540,139.6,537.9,141.5,537.2,145.5z M530.6,138.3c3.5,1,5.4,2.7,6.2,5.6c0.9-2.9,2.8-4.6,6.2-5.6c-3.3-1-5.2-2.9-6.1-6.1
					C535.9,135.4,533.9,137.3,530.6,138.3z"/>
			</g>
		</g>
		<g>
			<g>
				<path d="M698.7,145.5l-0.7,0c-0.7-4-2.7-5.9-7.4-6.9v-0.7c4.4-0.9,6.5-3,7.6-7.3l0.7,0c0.7,4.2,2.8,6.3,7.3,7.2v0.7
					C701.5,139.6,699.4,141.5,698.7,145.5z M692.1,138.3c3.5,1,5.4,2.7,6.2,5.6c0.9-2.9,2.8-4.6,6.2-5.6c-3.3-1-5.2-2.9-6.1-6.1
					C697.4,135.4,695.4,137.3,692.1,138.3z"/>
			</g>
		</g>
		<g>
			<g>
				<path d="M863,145.5l-0.7,0c-0.7-4-2.7-5.9-7.4-6.9v-0.7c4.4-0.9,6.5-3,7.6-7.3l0.7,0c0.7,4.2,2.8,6.3,7.3,7.2v0.7
					C865.8,139.6,863.7,141.5,863,145.5z M856.4,138.3c3.5,1,5.4,2.7,6.2,5.6c0.9-2.9,2.8-4.6,6.2-5.6c-3.3-1-5.2-2.9-6.1-6.1
					C861.7,135.4,859.7,137.3,856.4,138.3z"/>
			</g>
		</g>
		<g>
			<g>
				<path d="M1028,145.5l-0.7,0c-0.7-4-2.7-5.9-7.4-6.9v-0.7c4.4-0.9,6.5-3,7.6-7.3l0.7,0c0.7,4.2,2.8,6.3,7.3,7.2v0.7
					C1030.7,139.6,1028.7,141.5,1028,145.5z M1021.4,138.3c3.5,1,5.4,2.7,6.2,5.6c0.9-2.9,2.8-4.6,6.2-5.6c-3.3-1-5.2-2.9-6.1-6.1
					C1026.6,135.4,1024.7,137.3,1021.4,138.3z"/>
			</g>
		</g>
		<g>
			<g>
				<g>
					<path d="M1297.6,158.7v-0.4c1.8,0,3.2-1.1,3.2-5.4v-45c0-1.6-1-2.4-2.5-1.8l-0.6,0.2v-0.4l10.1-4.8v38.7
						c5.5-8.1,14.1-19.4,25.1-19.4c0.1,3.2,0.2,6.6-3.8,6.6c-6.7,0-10.6,1.6-13.5,4.1l14,22c2.8,4.4,4.8,5.4,6.6,5.4v0.4h-13.7v-0.4
						c1.8,0,2.5-1.1-0.3-5.4l-10.8-17.1c-1.2,1.6-2.3,3.4-3.6,5.2v11.9c0,4.3,1.4,5.4,3.2,5.4v0.4H1297.6z"/>
				</g>
			</g>
			<g>
				<g>
					<path d="M1277.8,101.6c0.7,4.4,3,6.6,7.5,7.5c-4.6,1-6.9,2.8-7.7,7.2c-0.7-4.4-3.1-6.2-7.7-7.2
						C1274.5,108.1,1276.7,105.9,1277.8,101.6z"/>
				</g>
			</g>
			<g>
				<g>
					<path d="M1222,158.7v-0.4c1.8,0,3.2-1.1,3.2-5.4v-45c0-1.6-1-2.4-2.5-1.8l-0.6,0.2v-0.4l10.1-4.8v38.7
						c5.5-8.1,14.1-19.4,25.1-19.4c0.1,3.2,0.2,6.6-3.8,6.6c-6.7,0-10.6,1.6-13.5,4.1l14,22c2.8,4.4,4.8,5.4,6.6,5.4v0.4h-13.7v-0.4
						c1.8,0,2.5-1.1-0.3-5.4l-10.8-17.1c-1.2,1.6-2.3,3.4-3.6,5.2v11.9c0,4.3,1.4,5.4,3.2,5.4v0.4H1222z"/>
				</g>
			</g>
			<g>
				<g>
					<path d="M1258.7,125.5v-0.4l10.1-4.8v12.1c0,10.7-0.8,25.4,8.3,25.4c4.6,0,9.3-3.8,11.6-9.3v-21.4c0-1.6-1-2.4-2.5-1.8
						l-0.6,0.2v-0.4l10.1-4.8v32.7c0,4.3,1.4,5.4,3.2,5.4v0.4h-7.4c-1.6,0-2.7-1.1-2.7-2.7v-5.7c-3,5.5-8,9.1-14.5,9.1
						c-12,0-12.4-10.7-12.4-21.1v-11.2c0-1.6-1-2.4-2.5-1.8L1258.7,125.5z"/>
				</g>
			</g>
		</g>
		<g>
			<g>
				<g>
					<path d="M1460.5,158.3v-0.4c1.8,0,3.2-1.1,3.2-5.4v-45c0-1.6-1-2.4-2.5-1.8l-0.6,0.2v-0.4l10.1-4.8v38.7
						c5.5-8.1,14.1-19.4,25.1-19.4c0.1,3.2,0.2,6.6-3.8,6.6c-6.7,0-10.6,1.6-13.5,4.1l14,22c2.8,4.4,4.8,5.4,6.6,5.4v0.4h-13.7v-0.4
						c1.8,0,2.5-1.1-0.3-5.4l-10.8-17.1c-1.2,1.6-2.3,3.4-3.6,5.2v11.9c0,4.3,1.4,5.4,3.2,5.4v0.4H1460.5z"/>
				</g>
			</g>
			<g>
				<g>
					<path d="M1440.7,101.2c0.7,4.4,3,6.6,7.5,7.5c-4.6,1-6.9,2.8-7.7,7.2c-0.7-4.4-3.1-6.2-7.7-7.2
						C1437.4,107.7,1439.6,105.5,1440.7,101.2z"/>
				</g>
			</g>
			<g>
				<g>
					<path d="M1384.9,158.3v-0.4c1.8,0,3.2-1.1,3.2-5.4v-45c0-1.6-1-2.4-2.5-1.8l-0.6,0.2v-0.4l10.1-4.8v38.7
						c5.5-8.1,14.1-19.4,25.1-19.4c0.1,3.2,0.2,6.6-3.8,6.6c-6.7,0-10.6,1.6-13.5,4.1l14,22c2.8,4.4,4.8,5.4,6.6,5.4v0.4h-13.7v-0.4
						c1.8,0,2.5-1.1-0.3-5.4l-10.8-17.1c-1.2,1.6-2.3,3.4-3.6,5.2v11.9c0,4.3,1.4,5.4,3.2,5.4v0.4H1384.9z"/>
				</g>
			</g>
			<g>
				<g>
					<path d="M1421.6,125.1v-0.4l10.1-4.8v12.1c0,10.7-0.8,25.4,8.3,25.4c4.6,0,9.3-3.8,11.6-9.3v-21.4c0-1.6-1-2.4-2.5-1.8
						l-0.6,0.2v-0.4l10.1-4.8v32.7c0,4.3,1.4,5.4,3.2,5.4v0.4h-7.4c-1.6,0-2.7-1.1-2.7-2.7v-5.7c-3,5.5-8,9.1-14.5,9.1
						c-12,0-12.4-10.7-12.4-21.1v-11.2c0-1.6-1-2.4-2.5-1.8L1421.6,125.1z"/>
				</g>
			</g>
		</g>
		<g>
			<g>
				<g>
					<path d="M1623.4,157.9v-0.4c1.8,0,3.2-1.1,3.2-5.4v-45c0-1.6-1-2.4-2.5-1.8l-0.6,0.2v-0.4l10.1-4.8v38.7
						c5.5-8.1,14.1-19.4,25.1-19.4c0.1,3.2,0.2,6.6-3.8,6.6c-6.7,0-10.6,1.6-13.5,4.1l14,22c2.8,4.4,4.8,5.4,6.6,5.4v0.4h-13.7v-0.4
						c1.8,0,2.5-1.1-0.3-5.4l-10.8-17.1c-1.2,1.6-2.3,3.4-3.6,5.2v11.9c0,4.3,1.4,5.4,3.2,5.4v0.4H1623.4z"/>
				</g>
			</g>
			<g>
				<g>
					<path d="M1603.6,100.8c0.7,4.4,3,6.6,7.5,7.5c-4.6,1-6.9,2.8-7.7,7.2c-0.7-4.4-3.1-6.2-7.7-7.2
						C1600.3,107.3,1602.5,105.1,1603.6,100.8z"/>
				</g>
			</g>
			<g>
				<g>
					<path d="M1547.8,157.9v-0.4c1.8,0,3.2-1.1,3.2-5.4v-45c0-1.6-1-2.4-2.5-1.8l-0.6,0.2v-0.4l10.1-4.8v38.7
						c5.5-8.1,14.1-19.4,25.1-19.4c0.1,3.2,0.2,6.6-3.8,6.6c-6.7,0-10.6,1.6-13.5,4.1l14,22c2.8,4.4,4.8,5.4,6.6,5.4v0.4h-13.7v-0.4
						c1.8,0,2.5-1.1-0.3-5.4l-10.8-17.1c-1.2,1.6-2.3,3.4-3.6,5.2v11.9c0,4.3,1.4,5.4,3.2,5.4v0.4H1547.8z"/>
				</g>
			</g>
			<g>
				<g>
					<path d="M1584.5,124.7v-0.4l10.1-4.8v12.1c0,10.7-0.8,25.4,8.3,25.4c4.6,0,9.3-3.8,11.6-9.3v-21.4c0-1.6-1-2.4-2.5-1.8
						l-0.6,0.2v-0.4l10.1-4.8v32.7c0,4.3,1.4,5.4,3.2,5.4v0.4h-7.4c-1.6,0-2.7-1.1-2.7-2.7v-5.7c-3,5.5-8,9.1-14.5,9.1
						c-12,0-12.4-10.7-12.4-21.1v-11.2c0-1.6-1-2.4-2.5-1.8L1584.5,124.7z"/>
				</g>
			</g>
		</g>
		<g>
			<g>
				<path d="M1194.1,145.1l-0.7,0c-0.7-4-2.7-5.9-7.4-6.9v-0.7c4.4-0.9,6.5-3,7.6-7.3l0.7,0c0.7,4.2,2.8,6.3,7.3,7.2v0.7
					C1196.9,139.2,1194.9,141.1,1194.1,145.1z M1187.6,137.9c3.5,1,5.4,2.7,6.2,5.6c0.9-2.9,2.8-4.6,6.2-5.6c-3.3-1-5.2-2.9-6.1-6.1
					C1192.8,135,1190.9,136.9,1187.6,137.9z"/>
			</g>
		</g>
		<g>
			<g>
				<path d="M1358.5,145.1l-0.7,0c-0.7-4-2.7-5.9-7.4-6.9v-0.7c4.4-0.9,6.5-3,7.6-7.3l0.7,0c0.7,4.2,2.8,6.3,7.3,7.2v0.7
					C1361.2,139.2,1359.2,141.1,1358.5,145.1z M1351.9,137.9c3.5,1,5.4,2.7,6.2,5.6c0.9-2.9,2.8-4.6,6.2-5.6c-3.3-1-5.2-2.9-6.1-6.1
					C1357.1,135,1355.2,136.9,1351.9,137.9z"/>
			</g>
		</g>
		<g>
			<g>
				<path d="M1523.4,145.1l-0.7,0c-0.7-4-2.7-5.9-7.4-6.9v-0.7c4.4-0.9,6.5-3,7.6-7.3l0.7,0c0.7,4.2,2.8,6.3,7.3,7.2v0.7
					C1526.1,139.2,1524.1,141.1,1523.4,145.1z M1516.8,137.9c3.5,1,5.4,2.7,6.2,5.6c0.9-2.9,2.8-4.6,6.2-5.6c-3.3-1-5.2-2.9-6.1-6.1
					C1522.1,135,1520.1,136.9,1516.8,137.9z"/>
			</g>
		</g>
		<g>
			<g>
				<path d="M1687,145l-0.7,0c-0.7-4-2.7-5.9-7.4-6.9v-0.7c4.4-0.9,6.5-3,7.6-7.3l0.7,0c0.7,4.2,2.8,6.3,7.3,7.2v0.7
					C1689.7,139.2,1687.7,141,1687,145z M1680.4,137.8c3.5,1,5.4,2.7,6.2,5.6c0.9-2.9,2.8-4.6,6.2-5.6c-3.3-1-5.2-2.9-6.1-6.1
					C1685.7,135,1683.7,136.8,1680.4,137.8z"/>
			</g>
		</g>
	</g>
</g>
</svg>
