<?xml version="1.0" encoding="utf-8"?>
<!-- Generator: Adobe Illustrator 25.0.1, SVG Export Plug-In . SVG Version: 6.00 Build 0)  -->
<svg version="1.1" id="Capa_1" xmlns="http://www.w3.org/2000/svg" xmlns:xlink="http://www.w3.org/1999/xlink" x="0px" y="0px"
	 viewBox="0 0 150 150" style="enable-background:new 0 0 150 150;" xml:space="preserve">
<style type="text/css">
	.st0{fill:#00BA38;}
	.st1{fill:none;}
	.st2{fill:#FFFFFF;}
</style>
<g>
	<g>
		<g>
			<path class="st0" d="M75.5,144c-12.1,0-24-3.2-34.5-9.3L14.1,144l5.5-28.5C11,103.6,6.4,89.6,6.4,74.9c0-38.1,31-69.1,69.1-69.1
				c38.1,0,69.1,31,69.1,69.1C144.6,113,113.6,144,75.5,144z"/>
		</g>
	</g>
	<g>
		<g>
			<path class="st1" d="M75.5,33.1c-23.1,0-41.8,18.7-41.8,41.8c0,9.7,3.3,18.6,8.9,25.7L39.8,115l13.6-4.7c6.4,4,14,6.4,22.1,6.4
				c23.1,0,41.8-18.7,41.8-41.8C117.3,51.8,98.6,33.1,75.5,33.1z"/>
			<path class="st2" d="M75.5,120c-7.9,0-15.7-2.1-22.5-6.1L35.4,120l3.6-18.6c-5.7-7.8-8.7-16.9-8.7-26.5
				c0-24.9,20.3-45.2,45.2-45.2c24.9,0,45.2,20.3,45.2,45.2C120.7,99.8,100.4,120,75.5,120z M53.8,106.6l1.4,0.9
				c6.1,3.8,13.2,5.9,20.3,5.9c21.2,0,38.4-17.2,38.4-38.4c0-21.2-17.2-38.4-38.4-38.4c-21.2,0-38.4,17.2-38.4,38.4
				c0,8.6,2.8,16.8,8.2,23.6l0.9,1.2l-2,10.2L53.8,106.6z"/>
		</g>
		<path class="st2" d="M52.7,57.5c0,0,2.7-4.6,4.8-4.9c2.2-0.3,4.9-0.3,5.7,1.1c0.8,1.4,4.1,9.6,4.1,9.6s0.6,1.4-0.3,2.8
			c-0.9,1.4-2.9,3.4-2.9,3.4s-1.1,1.4,0,2.9c1.1,1.5,2.8,4.3,6.4,7.8c3.5,3.5,10.3,6.1,10.3,6.1s1,0.1,1.6-0.5c0.6-0.6,4-4.8,4-4.8
			s1.1-1.4,2.9-0.6c1.8,0.8,9.5,4.7,9.5,4.7s0.9,0.3,0.9,1.7c0,1.4-0.6,4.7-1.7,5.8c-1.1,1.1-4.4,4.6-9.4,4.6c-5,0-16.8-4-23.1-10.4
			c-6.3-6.3-11.9-12.7-13.2-18.5C50.9,62.6,51.1,59.9,52.7,57.5z"/>
	</g>
</g>
</svg>
